<?xml version="1.0" encoding="UTF-8"?>
<svg id="Layer_1" xmlns="http://www.w3.org/2000/svg" viewBox="0 0 595.28 841.89">
  <defs>
    <style>
      .cls-1 {
        fill: #fafafb;
      }

      .cls-2 {
        fill: #e6f5fe;
      }

      .cls-3 {
        fill: #e5f4fd;
      }

      .cls-4 {
        fill: #83303b;
      }

      .cls-5 {
        fill: #e3eef5;
      }

      .cls-6 {
        fill: #84333f;
      }

      .cls-7 {
        fill: #2a254d;
      }

      .cls-8 {
        fill: #84313d;
      }

      .cls-9 {
        fill: #e5f3fc;
      }

      .cls-10 {
        fill: #e3f2fc;
      }

      .cls-11 {
        fill: #84333e;
      }

      .cls-12 {
        fill: #e4f1fa;
      }

      .cls-13 {
        fill: #e5f3fb;
      }

      .cls-14 {
        fill: #392c51;
      }

      .cls-15 {
        fill: #83313c;
      }

      .cls-16 {
        fill: #2c274e;
      }

      .cls-17 {
        fill: #fbfafb;
      }

      .cls-18 {
        fill: #2e2951;
      }

      .cls-19 {
        fill: #e4f3fb;
      }

      .cls-20 {
        fill: #fbfbfb;
      }

      .cls-21 {
        fill: #e3f2fb;
      }

      .cls-22 {
        fill: #84323d;
      }

      .cls-23 {
        fill: #e5f2fb;
      }

      .cls-24 {
        fill: #e4f2fc;
      }

      .cls-25 {
        fill: #e4f2fb;
      }
    </style>
  </defs>
  <path class="cls-7" d="M46.57,111.42c3.37,1.41,6.37,2.68,9.38,3.92,22.55,9.29,45.54,17.25,69.26,23.02,13.29,3.23,26.72,5.67,40.36,6.82,6.78.57,13.58.6,20.36-.04,8.67-.82,17.36-1.54,25.98-2.75,27.19-3.82,53.56-10.62,78.43-22.55,3.88-1.86,7.6-4.07,11.3-6.28,2.09-1.25,3.94-1.39,6.02-.07,11.34,7.2,23.71,12.16,36.37,16.46,16.61,5.64,33.64,9.51,50.97,12.1,12.35,1.85,24.75,3.15,37.22,3.5,5.81.16,11.67-.32,17.46-.98,33.11-3.81,64.57-13.8,95.45-25.85,5.21-2.03,10.34-4.25,15.51-6.38.65-.27,1.31-.51,2.22-.86.05.96.13,1.71.13,2.47.03,8.24.06,16.47.07,24.71.04,33.11.08,66.21.11,99.32.04,42.94.07,85.88.09,128.82.03,51.26.05,102.52.06,153.78,0,12.95-.01,25.91-.07,38.86-.04,8.23-.06,16.47-.28,24.7-.26,10.02-2.82,19.58-6.51,28.83-7.29,18.29-18.96,33.4-33.8,46.17-10.54,9.07-22.28,16.3-34.62,22.65-59.19,30.46-119.8,57.88-180.86,84.33-1.4.6-2.61,1-4.26.29-44.34-19.22-88.48-38.86-131.95-59.97-17.6-8.55-35.09-17.33-52.52-26.24-16.94-8.66-32.17-19.68-44.81-34.04-11.86-13.47-20.43-28.72-24.82-46.21-1.61-6.39-2.44-12.87-2.45-19.45-.07-69.33-.13-138.66-.19-207.99,0-8.08.03-16.15.04-24.23.02-48.46.04-96.92.06-145.38.01-20.95.05-41.9.09-62.85.02-8.8.07-17.59.11-26.39,0-.63.06-1.26.1-2.24ZM265.9,264.79c-3.19,4.59-6.35,9.19-9.58,13.75-1.36,1.93-1.58,1.91-3.69.67-.39-.23-.82-.38-1.34-.61-.85,1.27-1.63,2.44-2.51,3.74,4.52,3.2,8.87,6.28,13.37,9.47.94-1.37,1.77-2.58,2.62-3.83-.66-.54-1.14-.96-1.64-1.35-1-.78-1.12-1.68-.42-2.71.27-.4.53-.8.81-1.19,3.37-4.76,6.73-9.53,10.1-14.29,1.98-2.79,2.15-2.81,5.18-1.08.11.06.29,0,.62,0,.74-1.07,1.55-2.23,2.46-3.54-4.36-3.09-8.57-6.07-12.82-9.09-5.55,4.37-10.94,8.61-16.34,12.85-.12-.07-.25-.15-.37-.22,2.27-6.51,4.54-13.01,6.84-19.61-4.23-2.99-8.32-5.89-12.48-8.83-1.12,1.24-2.19,2.28-2.59,3.88.4.33.76.63,1.11.93,1.39,1.17,1.47,1.68.53,3.25-.16.27-.36.53-.54.79-3.42,4.83-6.82,9.66-10.25,14.48-1.91,2.68-2.08,2.71-5.01,1.04-.12-.07-.29-.04-.59-.08-.42.56-.93,1.17-1.36,1.82-1.04,1.56-1.01,1.82.47,2.91,1.93,1.42,3.9,2.79,5.86,4.17,1.23.86,2.46,1.71,3.85,2.68.95-1.31,1.78-2.44,2.88-3.96-.37-.17-.72-.25-.96-.45-2.34-1.99-2.35-2.02-.65-4.42,2.9-4.11,5.82-8.22,8.74-12.31.35-.49.77-.92,1.53-1.81-.21,1.09-.26,1.64-.43,2.15-2.21,6.5-4.29,13.05-6.7,19.47-1.41,3.75-1.76,3.46,2.09,5.97.19.12.45.12.84.21,2.13-1.68,4.31-3.42,6.52-5.13,4.41-3.43,8.84-6.84,13.26-10.25.2.18.39.36.59.54ZM204,705.14c9.86,4.55,19.72,9.11,29.59,13.63.54.25,1.24.31,1.85.25,7.52-.79,14.77-2.68,21.65-5.82,1.82-.83,3.43-.87,5.28-.16,6.5,2.52,13.19,4.32,20.09,5.36,13.46,2.03,26.45.73,38.73-5.47,1.41-.71,2.64-.72,4.09-.09,8.64,3.74,17.77,5.23,27.1,5.29,12.73.09,25.11-2.18,37.15-6.29.98-.33,1.98-.58,2.99-.81,1.48-.33,5.37-2.24,6.53-3.29-6.99-.8-13.73-2.38-20.14-5.2-1.18-.52-2.3-.33-3.47.13-6.13,2.4-12.45,4.04-19.01,4.68-13.38,1.3-26.32-.17-38.5-6.25-1.45-.73-2.82-.87-4.37-.37-8.78,2.8-17.75,4.63-26.98,5.22-10.48.67-20.76-.25-30.72-3.68-2.04-.7-3.76-.67-5.73.18-7.65,3.28-15.67,4.8-24.02,4.88-7.5.07-14.8-1.05-22.05-2.8-.71-.21-1.42-.42-2.12-.64-.03.11-.07.21-.1.32.72.31,1.44.63,2.16.94ZM353.69,595.82c1.03-2.67,2.01-5.36,3.09-8.02.81-1.98,1.75-3.91,2.63-5.86q2.74-1.78,5.36.15c3.63,2.67,7.57,4.76,11.84,6.2,11.45,3.87,22.47,3.56,32.73-3.54,1.15-.79,2.08-.71,3.29-.09,2.98,1.52,5.96,3.13,9.1,4.25,12.89,4.58,24.98,3.32,35.95-5.33.3-.24.66-.4.93-.56.27.1.43.13.56.22,14.4,10.03,38.13,11.93,53.91,2.98,1.15-.65,1.81-.22,2.73.47,2.1,1.57,4.18,3.28,6.53,4.38,6.44,3.02,13.33,3.75,20.37,3.25.33-.02.65-.27,1.13-.49-.4-.55-.67-.93-.95-1.3-3.64-4.66-7.24-9.36-10.93-13.98-29.55-36.95-61.49-71.76-94.78-105.34-25.23-25.45-51.2-50.11-77.91-74.01-37.8-33.82-76.78-66.21-117.32-96.71-34.58-26.01-70.08-50.68-107.18-73-23.5-14.14-47.51-27.34-72.48-38.71-.77-.35-1.56-.66-2.66-1.12,0,1.16,0,1.93,0,2.7-.01,11.2-.03,22.39-.03,33.59-.02,47.9-.03,95.81-.04,143.71-.02,57.9-.04,115.8-.06,173.7,0,7.6,0,15.19-.05,22.79-.03,5.6.15,11.19.99,16.74.34,2.27.44,2.41,2.74,2.98,10.57,2.63,20.91,1.41,31.1-1.97.4,0,.81-.07,1.19.01,2.86.64,5.72,1.28,8.56,2,.39.1.87.51,1,.88.59,1.72,1.07,3.48,1.59,5.22-1.51-.94-2.94-1.07-4.7-.36-11.77,4.74-23.91,6.86-36.59,4.8-.58-.09-1.18-.01-1.95-.01,1.4,4.68,2.79,9.06,4.86,13.24.5-.09.81-.13,1.1-.21,4.14-1.06,8.01-2.79,11.56-5.12,1.73-1.13,3.06-.96,4.84-.15,3.91,1.79,7.88,3.52,11.97,4.83,6.16,1.97,12.5,2.56,18.93,1.23.49.41,1.02.77,1.45,1.23,1.88,2.03,4.11,3.48,6.74,4.35,1.05.35,2.06.82,3.09,1.24-.64.31-1.26.67-1.92.92-7.97,3.09-16.18,3.53-24.53,2.15-5.39-.89-10.57-2.5-15.51-4.82-1.7-.8-3.07-.72-4.72.17-1.95,1.06-4.1,1.76-6.17,2.61-.71.3-1.42.61-2.33,1,1.42,2.27,2.79,4.33,4.02,6.47,1.05,1.82,2.56,3,4.42,3.87,9.73,4.57,19.74,4.99,29.87,1.72,3.16-1.02,6.22-2.55,9.06-4.28,2.26-1.38,4.08-1.49,6.09.17.61.51,1.33.88,2.03,1.28,5.5,3.17,11.41,4.89,17.78,5.07,8.81.26,16.93-1.97,24.35-6.68,1.7-1.08,3.06-1.05,4.85-.18,3.44,1.66,6.96,3.23,10.59,4.42,12.43,4.1,24.26,3.09,35.12-4.7,1.34-.97,2.43-.68,3.73.09,5.81,3.46,12.14,5.24,18.88,5.58,11.04.55,21.4-2.15,31.27-6.87,1.94-.93,3.23-.82,4.9.59,6.28,5.27,13.65,7.8,21.82,8.14,9.16.38,17.55-1.96,25.19-7.03,1.64-1.09,1.97-1.01,3.61.17,6.92,4.99,14.7,7.28,23.18,7.13,8.01-.14,15.44-2.42,22.19-6.74,1.62-1.03,2.96-1.05,4.66-.21,3,1.48,6.06,2.92,9.21,4.02,12.91,4.52,25.29,3.9,36.72-4.3,1.29-.93,2.23-.68,3.46.05,9.16,5.44,19.1,6.9,29.56,5.66,7.54-.89,14.66-3.17,21.45-6.48,1.51-.74,2.6-.65,3.82.59,2.75,2.78,6.12,4.62,9.86,5.69,11.35,3.26,22.23,1.92,32.82-3.2,3.88-1.88,5.32-5.38,7.38-8.6-3.16-1.23-6.05-2.36-8.94-3.49-.94-.37-1.68-.02-2.44.52-1.96,1.38-3.92,2.77-5.95,4.04-4.06,2.54-8.4,3.02-12.85,1.26-2.89-1.14-5.73-2.45-8.48-3.9-1.7-.9-3.08-1.06-4.89-.13-5.86,3-12.17,4.37-18.74,4.27-9.38-.15-18.13-2.66-26.25-7.35-1.28-.74-2.37-.99-3.79-.26-9.78,5.02-20.15,6.98-31.11,5.86-5.87-.6-11.55-1.94-16.56-5.13-2.23-1.42-4.09-1.41-6.45-.49-9.27,3.64-18.91,5.27-28.87,4.65-6.09-.38-12.05-1.47-17.63-4.09.48-.71.94-1.45,1.46-2.14,1.5-2.03,3.01-4.04,4.52-6.05,7.97,2.65,16.09,3.15,24.37,1.79,6.59-1.09,12.86-3.12,18.87-6.02,2.25-1.09,2.52-1.06,4.23.55,3.03,2.87,6.62,4.71,10.59,5.85,6.35,1.83,12.78,1.88,19.24.78,6.14-1.05,11.84-3.29,16.95-6.89,2.22-1.56,2.4-1.63,4.58,0,4.99,3.74,10.52,6.34,16.58,7.8,10.03,2.41,19.52,1.33,28.16-4.66,1.3-.9,2.35-.93,3.72-.17,3.22,1.76,6.49,3.45,9.81,5,3.54,1.65,7,1.28,10.22-.97,1.9-1.33,3.78-2.69,5.67-4.03,1.16-.82,2.33-1.64,3.5-2.47,4.83,3.12,9.68,5.78,15.45,6.29.91-2.23,2.07-4.12,2.41-6.32-.34-.11-.49-.19-.65-.2-.64-.02-1.28-.03-1.92-.03-8.84-.09-17.32-1.65-25.04-6.24-1.09-.65-2.07-.6-3.18-.17-6.17,2.38-12.57,3.6-19.18,3.79-10.61.31-20.88-1.27-30.53-5.87-1.8-.86-3.21-.71-4.91.25-7,3.93-14.58,5.59-22.57,5.28-7.11-.27-13.9-1.99-20.31-5.08-1.67-.8-3.06-.79-4.71.05-5.65,2.85-11.67,4.26-18.01,4.29-9.57.04-18.49-2.42-26.75-7.17-1.64-.94-2.91-1.13-4.63-.15-1.84,1.05-3.95,1.65-5.94,2.45ZM548.5,491.5V132.37c-.32-.04-.57-.13-.78-.08-.77.22-1.52.47-2.27.74-24.52,8.86-49.42,16.35-75.09,21.12-10.53,1.96-21.12,3.57-31.83,4.04-12.56.55-25.09-.07-37.58-1.51-11.59-1.33-23.1-3.19-34.51-5.65-15.63-3.37-31.05-7.47-45.95-13.38-4.84-1.92-9.55-4.08-13.83-7.09-1.9-1.34-2.39-1.39-4.28,0-4.16,3.06-8.78,5.23-13.54,7.11-22.88,9.01-46.71,14.24-70.97,17.67-8.53,1.21-17.15,1.87-25.75,2.55-8.69.7-17.41.7-26.11,0-1.19-.09-2.41-.28-4.03.07,5.14,3.22,9.88,6.17,14.59,9.15,49.16,31.12,96,65.48,141.53,101.66,33.57,26.67,66.21,54.43,97.93,83.27,26.33,23.94,52.07,48.5,76.6,74.29,16.26,17.1,32.11,34.56,46.68,53.14,3,3.82,5.9,7.72,9.18,12.01ZM91.97,642.85l-.17.49c4.03,3.88,8.42,7.32,12.94,10.61,1.29.94,2.5,1.17,4.02.74,4.48-1.26,8.82-2.84,12.75-5.39,1.41-.91,2.53-.81,3.93.11,6.34,4.16,13.35,6.43,20.91,6.92,10.16.66,19.7-1.5,28.51-6.62,1.62-.94,3-.93,4.71-.17,3.42,1.53,6.89,2.99,10.46,4.13,6.99,2.24,14.14,3.26,21.51,2.31,6.46-.83,12.39-3.03,17.83-6.56,1.21-.78,2.21-.94,3.53-.22,10.85,5.95,22.47,6.79,34.45,4.98,7.15-1.08,14.02-3.17,20.59-6.15,1.86-.85,3.21-.66,4.78.61,2.86,2.34,6.09,4.13,9.59,5.33,14.36,4.92,28.14,3.65,41.28-3.99,1.48-.86,2.64-1.01,4.15.01,7.61,5.12,16.13,7.22,25.21,7.08,8.64-.13,16.73-2.43,24.2-6.77,1.66-.96,3.03-.95,4.69-.13,4.88,2.42,9.99,4.26,15.31,5.44,12.15,2.7,23.67,1.39,34.27-5.5,1.48-.96,2.7-.91,4.19-.07,6.1,3.41,12.71,5.19,19.63,5.71,9.69.74,19.1-.73,28.32-3.78,3.72-1.23,7.02-3,9.8-5.76.87-.87,1.81-1.66,3.07-2.8-1.21,0-1.82-.02-2.42,0-3.59.15-7.18.52-10.76.41-7.22-.23-14.06-2.03-20.23-5.92-1.4-.88-2.57-.88-4.03-.3-6.56,2.63-13.36,4.28-20.41,4.95-9.49.9-18.67-.19-27.45-3.95-2.02-.87-3.69-.79-5.65.24-6.85,3.61-14.2,5.24-21.95,4.98-7.69-.25-15.02-2.07-22-5.23-2.16-.98-3.89-.96-6.07.07-15.16,7.17-30.36,7.3-45.44-.31-1.39-.7-2.46-.61-3.79.04-5.72,2.78-11.74,4.54-18.11,5.08-10.67.9-20.68-1.05-29.85-6.71-1.58-.98-2.95-1.11-4.7-.4-6.77,2.75-13.78,4.54-21.08,5.22-9.06.85-17.9.04-26.32-3.55-2.33-1-4.13-.79-6.28.35-6.56,3.45-13.63,4.98-21.03,4.83-7.77-.15-15.22-1.89-22.26-5.12-2.4-1.1-4.33-1.03-6.75.1-14.85,6.98-29.77,7.09-44.57-.21-1.69-.83-3-.86-4.69-.04-8.07,3.89-16.59,5.63-25.57,5.01-1.01-.07-2.03-.1-3.04-.15ZM118.07,661.95c.58.44.81.66,1.07.8,9.08,4.7,18.15,9.42,27.26,14.06.95.49,2.14.7,3.22.73,9.41.19,18.46-1.52,26.93-5.71,2.31-1.14,4.19-1.21,6.5.03,7.68,4.11,16,5.93,24.68,5.97,9.74.05,19.04-1.98,27.78-6.33,1.58-.79,2.94-.83,4.54-.14,5.9,2.52,12.01,4.36,18.34,5.39,12.34,2.02,24.22.81,35.33-5.29,1.48-.81,2.74-.9,4.27-.18,9.74,4.54,20.07,5.75,30.65,5.05,9.86-.65,19.44-2.76,28.64-6.44,1.56-.62,2.82-.41,4.27.44,2.68,1.56,5.4,3.18,8.3,4.22,16,5.74,31.7,4.66,47-2.58,1.49-.7,2.69-.96,4.25-.11,11,5.98,22.78,7.54,35.07,5.97,3.1-.4,6.13-1.09,8.95-2.54,5.54-2.85,11.1-5.67,16.64-8.52.59-.3,1.12-.71,2.03-1.3-.87-.04-1.26-.09-1.65-.08-9.04.19-17.85-1.05-26.3-4.38-1.58-.62-2.91-.38-4.35.3-7.43,3.5-15.28,5.1-23.46,5.02-8.48-.08-16.67-1.75-24.55-4.85-2.49-.98-4.69-.91-7.15.09-16.34,6.65-32.66,6.69-48.89-.41-1.35-.59-2.51-.65-3.88-.06-6.82,2.91-13.92,4.63-21.35,4.99-10.92.53-21.33-1.28-31.01-6.52-1.45-.78-2.74-.96-4.32-.41-7.49,2.62-15.17,4.4-23.1,5.06-10,.84-19.8.08-29.26-3.48-2.01-.76-3.75-.75-5.72.18-7.04,3.33-14.53,4.83-22.3,4.83-8.72,0-17.17-1.66-25.27-4.84-2.48-.97-4.61-1.02-7.09.05-7.18,3.11-14.74,4.73-22.57,4.9-9.32.19-18.28-1.51-26.76-5.45-1.11-.52-2.05-.65-3.15-.05-1.04.57-2.16.97-3.58,1.6ZM167.33,687.48c.36.33.49.54.69.63,5.53,2.69,11.08,5.35,16.6,8.05.8.39,1.49.37,2.26,0,1.65-.8,3.36-1.49,4.96-2.39,1.62-.91,3.06-.79,4.77-.13,4.39,1.7,8.79,3.41,13.32,4.67,9.14,2.53,18.41,3.06,27.72.76,4.77-1.18,9.26-3.02,13.44-5.58,1.23-.75,2.3-.84,3.57-.14,1.33.72,2.74,1.31,4.15,1.87,11.91,4.74,24.17,4.77,36.57,2.63,6.72-1.16,13.21-3.13,19.5-5.73,1.51-.63,2.81-.79,4.25.26,6.68,4.88,14.24,7.41,22.43,8.28,11.17,1.18,21.88-.44,31.87-5.61,2.87-1.48,5.18-2.27,7.73.13.11.11.28.15.42.23,10.13,5.24,20.89,6.75,32.12,5.36,1.17-.14,2.36-.49,3.42-1,7.37-3.47,14.71-7,22.06-10.53.53-.25,1.01-.61,1.88-1.15-8.95-.32-17.1-2.1-24.89-5.36-2.25-.94-4.1-.89-6.36.1-16.13,7.09-32.36,7.34-48.53.16-2.08-.92-3.7-.97-5.82-.1-17.62,7.24-35,7.07-51.94-2.21-1.4-.77-2.65-.81-4.1-.27-7.52,2.82-15.25,4.67-23.27,5.38-9.93.88-19.65.02-28.99-3.62-2.2-.86-4-.86-6.13.2-7.06,3.52-14.61,5.08-22.47,5.06-8.99-.02-17.6-1.97-25.87-5.42-2-.84-3.69-.89-5.69.07-4.7,2.26-9.65,3.8-14.82,4.6-1.56.24-3.11.51-4.86.79ZM243.13,727.05c1.97.94,3.56,1.64,5.11,2.44,11.27,5.79,23.13,9.97,35.33,13.32,7.61,2.09,15.18,4.39,22.71,6.76,2.21.7,4.17.6,6.27-.21,4.76-1.85,9.57-3.57,14.34-5.38,6.04-2.29,12.16-4.41,18.08-6.97,8.64-3.73,17.15-7.78,25.71-11.7.75-.34,1.47-.73,2.4-1.19-1.79-1.39-3.28-1.18-4.91-.37-9.6,4.76-19.74,6.76-30.43,5.58-3.73-.41-7.44-.97-11.14-1.55-5.36-.84-10.77-1.52-15.87-3.5-1.57-.61-2.85-.48-4.32.22-8.43,4.05-17.23,6.13-26.66,5.33-7.22-.61-14.34-1.66-20.86-4.87-3.53-1.74-6.58-2.17-10.03-.09-1.6.96-3.53,1.37-5.73,2.18ZM494.91,502.36c-1.16,1.09-2.24,2.11-3.43,3.22,3.88,4.18,7.6,8.19,11.4,12.29,1.28-1.19,2.32-2.16,3.38-3.15-.64-.81-1.22-1.31-1.48-1.95-.24-.59-.44-1.61-.13-1.94,1.95-2.06,4.04-3.98,6.02-5.88,1.86,1.12,2.08,2.54,1.77,4.15-.84,4.39-1.61,8.8-2.55,13.17-.39,1.81-.11,3.17,1.21,4.55,4.25,4.46,8.38,9.02,12.54,13.56.42.46.7,1.05,1.12,1.7,1.5-1.4,2.57-2.41,3.63-3.4-.55-.78-1.13-1.32-1.33-1.97-.14-.47.05-1.4.4-1.61,1.16-.68,2.43-1.19,3.71-1.63.34-.12.97.12,1.25.41,1.93,2.03,3.82,4.09,5.67,6.19.27.3.5.98.35,1.26-.83,1.48-1.26,3.29-3.07,4.2-.79-.58-1.55-1.12-2.54-1.84-1.07,1.01-2.12,2.01-3.3,3.12,3.73,4.08,7.27,7.94,10.88,11.9,1.25-1.16,2.29-2.12,3.45-3.2-1.66-1.63-1.17-3.22-.32-4.9,2.23-4.42,4.38-8.88,6.57-13.32,1.73-3.51,3.47-7.02,5.21-10.52.36-.73.84-1.49.19-2.22-1.52-1.72-3.11-3.37-4.61-4.98-.9.33-1.5.54-2.09.77-8.2,3.13-16.4,6.28-24.61,9.4-2.62,1-4.78.07-5.72-2.53-.29-.79-.32-1.73-.25-2.59.21-2.55.53-5.08.82-7.63.12-1.07.27-2.14.42-3.37,1.64.68,2.99,1.35,4.41,1.8,3.89,1.23,7.37.27,9.74-2.67,2.27-2.82,2.66-6.01,1.18-9.22-.89-1.93-2.14-3.76-3.56-5.35-4.36-4.89-8.88-9.65-13.34-14.45-.41-.45-.91-.82-1.48-1.32-1.13,1.07-2.16,2.03-3.19,3.01.23.47.33.78.51,1.02,1.74,2.37,1.75,2.38-.45,4.43-4.21,3.93-8.43,7.84-12.65,11.75q-2.75,2.55-5.71-.27ZM412.46,405.21c1.98.87,2.28,2.17,2.01,3.99-.73,4.81-1.31,9.65-1.86,14.48-.08.71.05,1.71.49,2.18,2.26,2.34,4.65,4.54,7.12,6.91,1.17-1.23,2.18-2.29,3.18-3.33-2.49-2.74-2.58-3.03-2.33-6.47.15-2.07.24-4.15.38-6.22.07-1.1.19-2.2.3-3.47,1.32.52,2.39,1.01,3.51,1.36,3.8,1.19,7.29.79,10.09-2.31,2.48-2.74,2.94-6.85.98-10.26-1.02-1.78-2.34-3.45-3.79-4.9-4.56-4.58-9.25-9.05-13.9-13.55-.44-.43-.95-.78-1.56-1.28-1.15,1.22-2.22,2.35-3.29,3.47.57.53,1.02.87,1.39,1.29,1.13,1.24,1.15,1.62.13,2.87-.4.49-.86.94-1.31,1.4-3.78,3.9-7.56,7.8-11.34,11.7q-2.79,2.87-5.74.72c-1.13,1.02-2.23,2.02-3.42,3.1,3.95,3.82,7.83,7.58,11.8,11.42,1.17-1.19,2.21-2.25,3.58-3.65-.67-.49-1.29-.86-1.81-1.34-.75-.7-.88-1.49-.11-2.3,1.85-1.96,3.7-3.91,5.5-5.82ZM69.82,136.49c-.73,1.46-1.39,2.76-2.08,4.15.7.39,1.2.63,1.67.93,1.36.88,1.55,1.46.98,3.01-.14.37-.32.73-.49,1.09-2.55,5.24-5.09,10.49-7.65,15.73-1.51,3.1-1.63,3.12-4.91,1.83-.12-.05-.29.06-.65.15-.53,1.15-1.12,2.42-1.78,3.84,4.3,2.18,8.39,4.23,12.76,6.16.69-1.55,1.25-2.83,1.79-4.06-.4-.32-.58-.49-.77-.61-2.55-1.58-2.59-1.65-1.3-4.32,2.08-4.32,4.18-8.62,6.29-12.93.22-.45.53-.87.8-1.3.17.03.33.06.5.08,0,1.55-.02,3.1,0,4.66.1,6.71.18,13.43.33,20.14.02.82.18,2.02.71,2.36,1.71,1.09,3.62,1.86,5.58,2.82.58-1.15,1.02-1.99,1.43-2.84,3.28-6.75,6.55-13.51,9.82-20.27,1.76-3.64,2.41-3.02,4.92-1.85.12.05.3-.03.61-.07.57-1.2,1.18-2.49,1.86-3.93-4.26-2.07-8.38-4.08-12.65-6.15-.74,1.53-1.35,2.81-1.96,4.09.3.23.47.39.67.51,2.59,1.56,2.7,1.86,1.42,4.51-1.32,2.73-2.66,5.45-4.01,8.17-.22.45-.52.86-.78,1.29-.38-1.06-.36-1.99-.38-2.93-.1-5.51-.22-11.03-.28-16.54-.01-1.16-.32-1.93-1.45-2.45-3.55-1.64-7.05-3.39-10.99-5.3ZM312.65,294.28c.59.53.87.79,1.17,1.05,1.6,1.41,1.66,1.82.37,3.57-.71.97-1.47,1.89-2.22,2.82-1.63,2.04-3.27,4.07-4.91,6.1-.26-.75-.21-1.34-.09-1.92,1.18-5.62,2.29-11.26,3.6-16.85.4-1.7-.05-2.65-1.37-3.62-2.57-1.9-5.01-3.96-7.52-5.94-.48-.38-1.02-.67-1.69-1.1-.95,1.22-1.81,2.32-2.89,3.71.59.42,1.1.7,1.49,1.08,1.22,1.22,1.26,1.7.32,3.1-.31.46-.67.89-1.02,1.33-3.53,4.43-7.07,8.87-10.61,13.3q-2.17,2.71-5.18.78c-.12-.08-.3-.05-.66-.1-.8,1.03-1.66,2.14-2.66,3.41,3.7,2.95,7.29,5.82,11.05,8.83,1.02-1.3,1.93-2.45,2.99-3.81-.5-.36-.85-.57-1.14-.84-1.8-1.69-1.84-1.94-.25-3.94,3.07-3.88,6.18-7.74,9.27-11.61.28-.35.61-.66.92-.99.08,1.53-.16,2.91-.44,4.28-1.42,6.87-2.85,13.75-4.3,20.61-.17.79-.48,1.55.32,2.18,1.56,1.22,3.11,2.45,4.81,3.8.67-.8,1.23-1.45,1.77-2.12,4.94-6.17,9.86-12.36,14.82-18.53,1.59-1.98,1.86-1.98,3.92-.65.38.25.79.44,1.29.72.94-1.21,1.8-2.32,2.77-3.57-3.76-3-7.34-5.86-11.01-8.79-1.04,1.31-1.91,2.41-2.92,3.69ZM162.43,225.06c.59.43.89.68,1.22.89,4.08,2.52,8.11,5.13,12.28,7.49,2.28,1.29,4.76,2.24,7.22,3.16,2.27.85,4.66,1.05,7.08.58,7.42-1.45,13.48-8.31,14.32-16.1.54-4.99-.99-9.16-4.71-12.48-1.36-1.22-2.86-2.31-4.41-3.29-4.39-2.78-8.83-5.48-13.25-8.19-.59-.36-1.25-.62-2.04-1.01-.79,1.33-1.51,2.53-2.27,3.81.61.46,1.05.78,1.48,1.12,1.42,1.12,1.48,1.43.67,3.01-.15.28-.31.56-.48.83-3.18,5.18-6.34,10.36-9.53,15.52-1.55,2.5-1.58,2.48-4.34,1.2-.27-.12-.58-.14-1.02-.24-.72,1.2-1.4,2.34-2.21,3.69ZM200.41,240.57c.18,1.26.25,2.55.55,3.78,1.78,7.45,9.84,14.14,17.74,14.68,11.32.78,18.5-9.17,18.83-17.45.38-9.6-8.37-18.57-18.25-19.01-10.12-.45-18.7,7.78-18.86,18.01ZM340.2,354.28c.35.91.57,1.5.8,2.08,1.39,3.42,3.48,6.29,6.62,8.29,2.27,1.44,4.74,2.3,7.44,2.35,6.92.14,11.5-5.82,9.47-12.45-.51-1.66-1.37-3.23-2.23-4.76-1.45-2.58-3.08-5.05-4.52-7.63-1.24-2.22-1.14-4.13.04-5.08,1.26-1.01,3.15-.56,5.09,1.3,2.74,2.61,3.68,5.9,3.44,9.58-.08,1.26-.26,2.5-.4,3.79,1.45.7,2.7,1.31,4.12,2,1.92-3.58,3.71-6.94,5.48-10.25-1.22-1.53-2.25-2.85-4.33-2.15-1.05-2.76-2.44-5.17-4.53-7.1-2.69-2.47-5.8-3.97-9.54-3.74-5.86.36-10.79,5.79-8.17,12.43.73,1.85,1.67,3.62,2.63,5.37,1.11,2.03,2.39,3.97,3.5,6,.53.97,1,2.03,1.21,3.1.46,2.28-1.28,4.02-3.52,3.44-1.11-.29-2.26-.89-3.12-1.65-4.19-3.67-4.91-8.39-3.77-13.56.48-2.18.51-2.31-1.52-3.35-.62-.32-1.27-.59-2.15-.99-2.2,3.55-4.37,6.98-6.43,10.47-.23.39-.04,1.24.25,1.69.97,1.5,2.38,1.68,4.13.8ZM484.13,450.44c-.55-1.25-.96-2.38-1.51-3.43-2.15-4.14-5.51-6.76-10.06-7.83-6.95-1.64-12.73,4.16-10.93,11.07.5,1.91,1.32,3.76,2.16,5.56,1.02,2.17,2.28,4.22,3.32,6.37.55,1.14,1.06,2.36,1.25,3.59.37,2.42-1.54,4.04-3.88,3.28-1.02-.33-2.02-1-2.81-1.75-3.72-3.55-4.42-7.98-3.41-12.8.73-3.48.77-3.47-2.47-5.2-.13-.07-.3-.07-.7-.16-2.46,3.49-4.97,7.05-7.44,10.55,1.75,2.7,2.04,2.84,4.82,2.22.23.74.43,1.5.7,2.24,2.15,5.93,6.17,9.9,12.44,11.08,7.27,1.37,12.96-4.92,10.98-12.03-.51-1.83-1.35-3.58-2.18-5.3-1.15-2.37-2.48-4.65-3.65-7.01-.42-.84-.78-1.78-.87-2.71-.21-2.36,1.55-3.63,3.71-2.7.78.34,1.53.89,2.14,1.49,3.11,3.11,3.7,6.93,3,11.09-.15.91-.24,1.83-.36,2.7,1.4.76,2.57,1.4,3.91,2.13,2.08-3.44,4.07-6.75,6.01-9.96q-1.97-2.4-4.17-2.5ZM113.93,181.12c-.88-.3-1.78-.6-2.69-.9-1.17-.39-1.84.12-2.17,1.21-.49,1.6-.97,3.21-1.46,4.81-.66,2.12-1.33,4.23-1.99,6.32,1.67,1.41,3.21,2.49,5.13.44.61.86,1.08,1.59,1.61,2.27,3.87,4.99,8.88,7.47,15.25,6.67,6.73-.84,10.41-7.92,7.17-13.87-.87-1.59-2.09-3.02-3.33-4.36-1.95-2.12-4.11-4.04-6.05-6.16-.84-.91-1.61-2.04-1.96-3.2-.57-1.88.53-3.19,2.49-3.09.99.05,2.05.39,2.93.87,3.94,2.16,5.6,5.75,5.99,10.04.21,2.25.15,2.27,2.42,2.75.75.16,1.52.22,2.39.33.85-3.39,1.71-6.54,2.41-9.73.42-1.88-1.24-3.3-3.18-2.89-.37.08-.72.26-1.09.4-.27-.32-.48-.56-.67-.81-.25-.31-.47-.65-.73-.95-3.29-3.91-7.43-5.95-12.59-5.75-7.41.29-11.43,7.6-7.58,13.91.91,1.49,2.07,2.84,3.25,4.13,1.95,2.12,4.05,4.09,6,6.21.74.8,1.38,1.77,1.81,2.78.69,1.63.05,3.09-1.61,3.65-.78.26-1.75.31-2.54.11-4.56-1.19-7.11-4.44-8.32-8.76-.55-1.97-.6-4.08-.91-6.41ZM455.78,420.03c-3.94-4.12-7.72-8.08-11.5-12.03-.97.99-1.51,1.46-2,1.97-.48.5-.92,1.05-1.43,1.64.46.54.83.94,1.17,1.37,1.12,1.39,1.13,1.73-.03,3.09-.62.73-1.33,1.38-2,2.07-3.3,3.37-6.63,6.71-9.89,10.12-1.4,1.47-2.33,3.22-2.59,5.29-.73,5.87,2.56,11.68,8.34,14.67,5.47,2.83,9.87,2.09,14.82-2.51.18-.16.35-.33.52-.5,2.76-2.78,5.52-5.56,8.28-8.34.62-.62,1.26-1.23,1.92-1.81.84-.74,1.73-.75,2.61-.07.6.47,1.19.96,1.88,1.51,1.07-1.14,2.04-2.17,2.81-2.98-3.27-3.42-6.4-6.68-9.39-9.81-1.15,1-2.26,1.98-3.4,2.98.4.46.67.76.92,1.06,1.35,1.61,1.35,1.93-.03,3.42-.71.76-1.44,1.5-2.18,2.23-3.08,3.03-6.06,6.16-9.28,9.03-2.64,2.35-5.91,2.06-8.41-.38-2.44-2.38-2.81-5.45-.39-8.14,3.73-4.16,7.78-8.04,11.71-12.01.79-.79,1.7-.8,2.58-.08.6.49,1.2.99,1.9,1.57,1.05-1.16,2-2.21,3.05-3.37ZM325.61,304.84c.44.5.7.79.96,1.09,1.56,1.77,1.6,2.06.1,3.83-1.44,1.71-2.98,3.34-4.45,5.02-2.16,2.46-4.36,4.89-6.42,7.43-2.02,2.48-2.75,5.3-2.08,8.52,1.29,6.19,5.22,9.87,10.99,11.83,2.95,1,5.9.8,8.52-.89,1.72-1.11,3.32-2.49,4.74-3.97,2.81-2.95,5.44-6.06,8.16-9.09,2.31-2.59,2.35-2.58,5.25-.57.12.08.3.08.68.17.86-.97,1.79-2.02,2.88-3.26-3.55-3.18-6.98-6.25-10.52-9.41-1.09,1.25-2.02,2.31-2.97,3.4.3.42.43.72.66.92,1.85,1.63,1.95,2.21.05,4.31-2.84,3.14-5.63,6.33-8.48,9.46-.86.94-1.76,1.87-2.79,2.61-2.31,1.65-5.21,1.35-7.49-.64-2.28-1.98-2.84-4.45-1.47-7.08.54-1.05,1.25-2.05,2.03-2.95,2.78-3.2,5.6-6.35,8.43-9.49,2.22-2.46,2.38-2.45,5.07-.45.11.08.3.07.71.17.85-.95,1.78-2,2.89-3.24-4.2-3.74-8.27-7.37-12.43-11.09-1.1,1.24-1.99,2.24-3.03,3.41ZM372.72,381.09c-.97,1.06-1.95,2.13-3.02,3.3,4.1,3.92,8,7.65,11.91,11.38.62-.58,1.03-.96,1.43-1.35,1.77-1.74,1.78-1.75.22-3.7-.62-.77-.9-1.55-.16-2.35,1.83-1.97,3.7-3.92,5.53-5.85,3.58,2.78,3.62,3.38.46,7.55.94.85,1.92,1.74,3.12,2.82,3.52-3.67,6.93-7.21,10.36-10.79-1.02-1.12-1.96-2.17-2.91-3.22-3.42,3.28-4.03,3.84-7.28-.29,1.96-2.05,3.93-4.11,6.03-6.3,1.26,1.19,2.37,2.2,3.43,3.26.73.73,1.44,1.5,2.09,2.3,1.76,2.15,2.01,4.67,1.47,7.26-.59,2.85-.67,2.84,2.05,3.94.42.17.86.32,1.49.56,1.3-2.87,2.56-5.61,3.79-8.36.94-2.09.94-2.11-.7-3.69-5.7-5.48-11.42-10.95-17.13-16.41-.46-.44-.96-.82-1.51-1.28-.59.51-1.16.94-1.66,1.43-.55.53-1.04,1.13-1.5,1.64.18.33.22.5.33.6,2.44,2.32,1.83,2.9-.05,4.86-3.82,3.98-7.62,7.96-11.44,11.94q-2.87,2.99-6.35.74ZM507.93,489.24c1.79-3.59,3.54-6.97,5.18-10.41.58-1.23-.33-2.8-1.83-2.96-.89-.1-1.48-.37-2.04-.96-3.73-3.94-7.49-7.87-11.2-11.84-.37-.4-.57-1.05-.66-1.62-.3-1.94-1.76-2.87-3.52-2.11-2.86,1.24-5.7,2.5-8.53,3.8-.47.22-.86.62-1.38,1,.64,1.4,1.22,2.68,1.83,4.01,3.92-1.05,7.72-2.41,11.1,1.02-.25.44-.34.77-.55.97-5.09,4.85-10.19,9.68-15.29,14.52-.12.11-.25.2-.37.3-.89.77-1.73.65-2.55-.12-.5-.46-1.01-.91-1.52-1.38-1.23,1.1-2.27,2.03-3.47,3.1,3.96,4.18,7.67,8.08,11.51,12.13,1.26-1.18,2.28-2.14,3.21-3.01-.26-.56-.32-.81-.46-.99-1.85-2.47-1.86-2.48.41-4.65,4.45-4.24,8.92-8.47,13.39-12.7.56-.53,1.21-.98,1.76-1.42,1.31.66,1.67,1.7,1.92,2.81.42,1.85.19,3.64-.35,5.43-.3.96-.52,1.94-.79,2.99,1.47.74,2.73,1.37,4.2,2.1ZM263.67,293.66c4.52,3.45,8.81,6.72,13.25,10.11,1.02-1.37,1.89-2.54,2.78-3.73-.65-.58-1.12-1.01-1.6-1.42-.98-.82-1.03-1.73-.28-2.73.24-.32.46-.66.7-.97,3.68-4.83,7.35-9.67,11.05-14.49,1.72-2.25,2.02-2.27,4.48-.69.25.16.54.25.91.42.88-1.21,1.71-2.35,2.65-3.63-4.47-3.41-8.77-6.69-13.2-10.07-1.03,1.37-1.91,2.55-2.83,3.77.61.48,1.01.75,1.36,1.07,1.32,1.17,1.4,1.6.54,3.06-.2.34-.45.66-.69.98-3.68,4.83-7.35,9.68-11.05,14.5-1.78,2.32-1.89,2.3-4.43.66-.2-.13-.42-.22-.83-.43-.85,1.1-1.71,2.21-2.8,3.61ZM103.63,186.72c-.71-.46-1.18-.74-1.63-1.06-1.41-.97-1.52-1.37-.82-2.98.19-.44.42-.86.65-1.28,2.69-5.08,5.38-10.16,8.08-15.24q1.64-3.09,4.91-1.7c.13.05.31-.02.64-.04.61-1.17,1.26-2.41,2.01-3.85-4.94-2.62-9.7-5.15-14.66-7.78-.76,1.44-1.45,2.74-2.17,4.1.75.46,1.29.79,1.82,1.12,1.07.66,1.3,1.55.71,2.66-.22.42-.43.85-.66,1.28-2.73,5.15-5.45,10.31-8.18,15.46q-1.66,3.13-4.91,1.7c-.12-.05-.3.02-.61.05-.63,1.17-1.29,2.42-2.04,3.81,4.94,2.71,9.75,5.27,14.7,7.8.8-1.5,1.43-2.69,2.15-4.04ZM162.53,185.26c-4.91-2.76-9.6-5.41-14.47-8.15-.82,1.44-1.52,2.66-2.28,3.97.61.43,1.12.79,1.62,1.16,1.33.98,1.44,1.36.79,2.79-.23.51-.52.99-.8,1.47-2.81,5.01-5.62,10.02-8.45,15.02q-1.72,3.04-4.96,1.52c-.12-.05-.3.02-.6.05-.63,1.16-1.31,2.39-2.09,3.8,4.92,2.77,9.62,5.41,14.5,8.16.82-1.48,1.54-2.75,2.21-3.95-.36-.34-.46-.47-.59-.55-2.73-1.81-2.74-1.82-1.15-4.67,2.84-5.09,5.69-10.17,8.55-15.24q1.7-3.03,4.98-1.61c.12.05.3-.01.65-.03.6-1.07,1.25-2.24,2.09-3.74ZM200.83,703.58c-.14.03-.22.04-.3.06.02-.04.04-.1.06-.1.06,0,.12.02.24.05Z"/>
  <path class="cls-13" d="M94.28,583.89c-10.19,3.38-20.53,4.61-31.1,1.97-2.3-.57-2.4-.71-2.74-2.98-.84-5.55-1.03-11.13-.99-16.74.05-7.6.04-15.19.05-22.79.02-57.9.04-115.8.06-173.7.01-47.9.03-95.81.04-143.71,0-11.2.02-22.39.03-33.59,0-.77,0-1.55,0-2.7,1.1.46,1.89.77,2.66,1.12,24.98,11.38,48.98,24.57,72.48,38.71,37.1,22.32,72.6,46.99,107.18,73,40.54,30.5,79.52,62.88,117.32,96.71,26.7,23.9,52.68,48.56,77.91,74.01,33.29,33.58,65.23,68.39,94.78,105.34,3.69,4.62,7.29,9.32,10.93,13.98.29.37.55.75.95,1.3-.48.22-.8.47-1.13.49-7.04.5-13.93-.23-20.37-3.25-2.35-1.1-4.43-2.81-6.53-4.38-.92-.69-1.58-1.12-2.73-.47-15.78,8.96-39.52,7.05-53.91-2.98-.13-.09-.29-.12-.56-.22-.27.16-.63.33-.93.56-10.97,8.65-23.06,9.91-35.95,5.33-3.14-1.12-6.12-2.73-9.1-4.25-1.21-.62-2.14-.71-3.29.09-10.26,7.1-21.28,7.41-32.73,3.54-4.27-1.44-8.21-3.53-11.84-6.2q-2.62-1.93-5.36-.15c.24-.92.43-1.86.74-2.75,3.6-10.42,7.4-20.77,10.78-31.25,6.72-20.83,13.23-41.72,19.73-62.61.72-2.31,1.87-3.34,4.26-3.71,4.81-.76,9.56-1.84,14.33-2.83.93-.19,1.87-.48,2.72-.89,1.39-.66,2.21-2.22,1.95-3.54-.28-1.44-1.31-2.16-2.65-2.43-.69-.14-1.42-.18-2.13-.15-1.76.06-3.51.2-5.27.27-5.75.21-11.5.4-17.26.62-2.05.08-2.1.12-2.7,2.01-.68,2.13-1.25,4.3-1.99,6.41-6.63,18.79-14.47,37.04-23.75,54.69-2.6,4.94-6.47,8.24-11.61,10.16-3.93,1.47-8.02,2.17-12.19,2.37-3.01.14-6.03.03-9.25.03-1.08-6.76-2.47-13.34-3.24-20.23,1.12,0,1.9,0,2.69,0,.88-.01,1.77.03,2.63-.08,2.15-.27,3.01-1.27,2.74-3.39-.74-5.78-1.51-11.57-2.37-17.33-.38-2.55-1.08-3.04-3.69-3.08-1.98-.03-3.97,0-6.21,0-1.06-6.29-2.1-12.39-3.14-18.6.73-.12,1.19-.25,1.65-.26,1.68-.03,3.36.05,5.04-.04,2.41-.12,3.3-1.21,3.01-3.57-.24-1.98-.52-3.96-.78-5.94-.5-3.72-.98-7.45-1.54-11.16-.37-2.44-1.15-3.05-3.68-3.16-.7-.03-1.39-.09-2.23-.15-3.86-13.58-7.68-27.06-11.52-40.59,3.38-.51,6.48-.77,9.47-1.49,3.11-.75,5.69-2.5,7.77-5.5-5.59.2-10.59-.66-15.39-2.58-.94-.37-1.85-.92-2.63-1.56-.74-.61-1.42-1.05-2.37-.7-1.03.38-1.44,1.18-1.42,2.25.02,1.44-.1,2.89.02,4.32.41,4.89-.68,9.45-2.38,14.02-3.68,9.88-7.09,19.86-10.6,29.8-.44,1.26-.88,2.27-2.6,2.26-1.74,0-2.35.7-2.66,2.5-.5,2.99-.91,6-1.32,9.01-.4,3.01-.82,6.02-1.09,9.04-.19,2.25.57,3,2.84,3.21.77.07,1.53.12,2.5.2-.63,6.32-1.24,12.4-1.87,18.68-2.3,0-4.28-.03-6.27,0-2.4.05-3.08.65-3.45,3.06-.46,3-.9,6-1.3,9.01-.38,2.85-.79,5.7-1.05,8.56-.19,2.07.62,2.94,2.66,3.2.71.09,1.44.05,2.16.05,1.57,0,3.14,0,4.93,0-.69,7-1.34,13.65-2.02,20.58-7.62.01-15,.02-22.48,0-2.36-15.43-4.67-30.53-6.92-45.91,3.25,0,6.11,0,8.98,0,2,0,4,.07,6-.06,1.98-.13,2.86-1.16,2.88-3.11,0-.56-.05-1.12-.12-1.67-.81-6.1-1.62-12.19-2.44-18.29-1.89-14.09-3.78-28.19-5.66-42.28-.48-3.6-1.34-4.42-4.91-4.44-4.24-.02-8.48,0-12.72,0-.78,0-1.57,0-2.59,0-.98-6.5-1.93-12.77-2.9-19.19.91-.07,1.53-.15,2.15-.15,3.76-.01,7.52.04,11.28-.03,2.58-.05,3.66-1.33,3.33-3.86-.83-6.18-1.66-12.35-2.59-18.51-.68-4.53-.91-4.66-5.51-4.66-3.6,0-7.2.02-10.8-.01-1.77-.02-1.86-.14-2.22-1.8-.12-.55-.21-1.1-.3-1.65-.6-3.95-1.21-7.89-1.8-11.84-.67-4.49-1.31-8.99-1.99-13.62,2.83-.23,5.53-.48,8.22-.66,6.09-.4,11.3-2.68,15.46-7.2.33-.36.53-.83.86-1.37-.5-.05-.73-.1-.96-.08-7.74.39-15.06-1.43-22.17-4.3-.9-.36-1.72-.71-1.99-1.84-.28-1.19-1.24-1.64-2.4-1.45-1.1.18-1.61,1.03-1.72,2.04-.1.95-.02,1.92-.06,2.88-.2,4.38-.05,8.82-.69,13.14-1.05,7.02-2.62,13.97-3.98,20.95-.42,2.18-.86,4.36-1.32,6.68-1.04.06-1.9.14-2.76.15-4,.02-8,0-12,.01-3.04.02-3.92.83-4.32,3.88-.83,6.34-1.67,12.67-2.51,19.01-.4,3,.55,4.12,3.62,4.15,3.6.03,7.2,0,10.8.02.6,0,1.2.11,1.97.19-1.24,6.43-2.44,12.68-3.68,19.15-1.08,0-1.94,0-2.8,0-5.6,0-11.2-.03-16.79.02-3.09.03-4,.78-4.4,3.58-.7,4.98-1.34,9.98-2.01,14.96-1.21,9.03-2.44,18.05-3.64,27.08-.89,6.65-1.82,13.3-2.63,19.96-.39,3.21.61,4.23,3.83,4.25,4.24.03,8.48,0,12.72.01.7,0,1.39.07,2.31.13-2.95,15.38-5.76,30.57-8.82,45.79-6.16.21-12.02.39-17.92.12-2.66-13.07-5.31-25.89-7.89-38.72-2.57-12.78-5.3-25.54-7.81-38.61,1.26,0,2.13,0,2.99,0,2.64,0,5.28.06,7.92-.02,2.54-.08,3.57-1.32,3.41-3.86-.02-.32-.09-.63-.12-.95-.85-8.11-1.71-16.21-2.55-24.32-.99-9.54-1.94-19.08-2.94-28.61-.27-2.59-1.25-3.47-3.91-3.54-2.16-.06-4.32-.02-6.48-.02-3.51,0-7.02,0-10.84,0-2.37-11.55-4.71-23-7.13-34.79,6.62-.35,13.17-.43,17.81-6.56-.96-.09-1.49-.2-2.03-.19-4.8.1-9.34-1.08-13.79-2.72-1.59-.59-2.91-1.28-2.79-3.34.06-1.03-.76-1.56-1.71-1.69-1.1-.15-1.87.44-2.21,1.44-.19.59-.18,1.26-.19,1.9-.02,2.88.04,5.76-.03,8.64-.03,1.43-.14,2.89-.45,4.28-1.96,8.81-3.98,17.6-5.99,26.4-.49,2.17-.99,4.33-1.52,6.63-.99,0-1.78,0-2.57,0-4.24,0-8.48-.02-12.72,0-2.92.02-3.84.82-4.32,3.69-.38,2.28-.69,4.58-1.04,6.87-1.85,11.92-3.69,23.84-5.54,35.75-.54,3.47-1.14,6.94-1.61,10.42-.47,3.52.46,4.54,3.96,4.57,2.48.02,4.96,0,7.44,0,.78,0,1.56,0,2.68,0-3,13.31-5.93,26.27-8.89,39.37-9.47.09-18.7.18-28.06.26.05.82.04,1.29.12,1.74,1.09,6.21,2.17,12.43,3.3,18.64,2.18,11.94,4.46,23.86,6.55,35.82.88,5.02,3.17,9.03,7.44,11.78,2.14,1.38,4.46,2.48,6.69,3.71.6.33,1.18.72,1.77,1.08Z"/>
  <path class="cls-19" d="M548.5,491.5c-3.28-4.29-6.18-8.19-9.18-12.01-14.57-18.58-30.42-36.04-46.68-53.14-24.54-25.79-50.27-50.35-76.6-74.29-31.72-28.84-64.36-56.6-97.93-83.27-45.53-36.18-92.36-70.54-141.53-101.66-4.72-2.99-9.46-5.93-14.59-9.15,1.62-.35,2.84-.16,4.03-.07,8.71.69,17.42.69,26.11,0,8.6-.69,17.22-1.35,25.75-2.55,24.25-3.43,48.09-8.66,70.97-17.67,4.76-1.88,9.38-4.05,13.54-7.11,1.89-1.39,2.38-1.33,4.28,0,4.28,3.01,8.99,5.17,13.83,7.09,14.89,5.91,30.31,10,45.95,13.38,11.41,2.46,22.92,4.32,34.51,5.65,12.49,1.44,25.02,2.06,37.58,1.51,10.71-.47,21.3-2.08,31.83-4.04,25.67-4.77,50.57-12.26,75.09-21.12.75-.27,1.51-.52,2.27-.74.2-.06.45.04.78.08v359.13ZM542.6,197.03c.04-.2.09-.4.13-.59-4.62-3.07-9.24-6.14-13.86-9.21,2.01-7.93,3.94-15.56,5.87-23.19-.14-.1-.29-.21-.43-.31-.64.41-1.3.8-1.92,1.23-4.86,3.37-9.75,6.7-14.54,10.16-1.57,1.14-2.87,1.25-4.58.31-5.53-3.04-11.13-5.94-16.71-8.88-.45-.24-.95-.36-1.75-.66.35,1.08.58,1.82.84,2.55,1.76,4.88,3.53,9.76,5.29,14.64.73,2.02.73,2.03-1.07,3.26-7.18,4.93-14.36,9.86-21.54,14.79-.42.29-.8.63-1.19.95.89.42,1.65.42,2.42.42,9.43-.08,18.86-.17,28.29-.25,2.85-.02,2.82,0,3.91,2.49,3.55,8.21,7.12,16.41,10.69,24.6.19.43.5.81.97,1.55.4-4.29.77-8.1,1.1-11.91.52-6.05,1.01-12.1,1.54-18.14.16-1.9.36-2.04,2.37-2.23,1.99-.19,3.98-.36,5.96-.58,2.74-.31,5.49-.65,8.23-.98ZM441.95,233.76c.16.01.33.02.49.03,1.59-8.04,3.17-16.09,4.8-24.37h22.52l.2-.51c-5.05-4.56-10.09-9.12-15.14-13.69,1.88-2.78,3.59-5.29,5.27-7.82,1.63-2.46,3.39-4.85,4.73-7.54-.89.14-1.61.43-2.32.76-6,2.82-12.02,5.59-17.97,8.5-1.79.88-3.2.83-4.88-.28-4.99-3.31-10.08-6.48-15.14-9.69-.64-.41-1.3-.77-2.44-1.43,2.35,7.31,5.08,13.9,7.23,20.78-5.84,3-11.71,5.33-17.2,8.48,5.76,1.03,11.44,1.92,17.14,2.61,2.34.28,3.7,1.25,4.54,3.51,2.45,6.58,5.09,13.09,7.67,19.63.14.35.33.68.49,1.02ZM492.5,282.72c.03.16.06.33.09.49.75.1,1.5.21,2.25.28,6.12.58,12.24,1.21,18.37,1.68,1.81.14,2.65.92,3.18,2.58,1.86,5.77,3.83,11.51,5.77,17.26.21.62.52,1.2,1.02,2.31,1.29-6.63,1.88-12.78,3.2-18.93,4.9,1.83,9.5,3.55,14.6,5.46-.7-1.27-1.09-2.02-1.52-2.75-2.8-4.75-5.51-9.55-8.46-14.2-1.22-1.94-1.09-3.36.21-5.16,2.53-3.49,4.84-7.14,7.23-10.73.35-.53.59-1.13,1.11-2.14-5.25,2.47-9.94,4.69-14.64,6.89-1.99.93-2,.92-3.43-.65-4.79-5.26-9.58-10.52-14.35-15.79-.47-.52-.83-1.15-1.24-1.73-.21.14-.41.28-.62.42,2.37,8.31,4.74,16.62,7.16,25.08-6.8,3.28-13.37,6.45-19.94,9.62ZM438.19,301.14c1.24-.16,2.18-.36,3.11-.37,2.39-.03,3.86-1.2,5.21-3.16,17.29-25.15,34.67-50.25,52.02-75.36.4-.58.74-1.19,1.23-1.98-1.47-.98-2.82-1.89-4.27-2.86-.62.75-1.09,1.27-1.51,1.84-18.19,24.71-36.38,49.43-54.56,74.15-.32.44-.75.93-.8,1.43-.21,2.04-.29,4.09-.43,6.32ZM499.59,225.34c-.63.91-1.09,1.56-1.52,2.22-14.34,21.83-28.63,43.69-43.08,65.45-1.89,2.85-1.41,5.69-1.61,8.69,3.87.09,7.14-.41,8.55-4.43,13.71-22.51,27.42-45.02,41.13-67.53.32-.52.57-1.09.92-1.76-1.47-.89-2.82-1.7-4.39-2.64ZM486.1,216.54c-.84.99-1.52,1.76-2.17,2.56-4.89,5.91-9.77,11.83-14.66,17.75-10.84,13.13-21.69,26.25-32.51,39.39-.55.67-1.32,1.4-1.39,2.17-.2,1.95-.07,3.94-.07,6.11,1.28-.18,2.45-.46,3.62-.5,1.78-.05,2.94-.93,3.97-2.28,15.44-20.19,30.91-40.35,46.37-60.53.32-.42.56-.9.94-1.52-1.35-1.04-2.6-2-4.09-3.15ZM373.97,293.68c1.44-.21,2.45-.5,3.46-.48,2.2.04,3.45-1.12,4.58-2.87,12.7-19.76,25.45-39.49,38.18-59.23.59-.92,1.16-1.85,1.82-2.9-1.57-1.07-2.92-1.99-4.3-2.94-.37.43-.6.65-.78.91-13.98,19.96-27.96,39.93-41.93,59.9-.27.38-.59.82-.63,1.26-.18,1.97-.26,3.95-.4,6.36ZM406.83,223.57c-.58.64-1.03,1.08-1.42,1.56-12.27,15.16-24.44,30.39-36.87,45.42-2.36,2.86-2.1,5.76-2.24,9.19,1.14-.16,1.99-.43,2.82-.38,2.78.16,4.29-1.49,5.79-3.53,11.42-15.61,22.91-31.16,34.38-46.73.51-.69.98-1.42,1.6-2.33-1.4-1.1-2.69-2.11-4.07-3.2ZM422.99,234.5c-.42.55-.69.84-.89,1.18-10.14,16.27-20.27,32.55-30.39,48.84-.33.53-.68,1.15-.71,1.74-.09,1.9-.03,3.8-.03,5.9,1.23-.18,2.24-.46,3.24-.44,2.14.05,3.28-1.03,4.28-2.82,9.24-16.61,18.55-33.18,27.84-49.77.34-.61.63-1.24,1.02-2.03-1.49-.89-2.85-1.7-4.36-2.6ZM460.27,363.1c1.11-.16,1.9-.39,2.68-.37,2.55.07,4.01-1.27,5.32-3.34,9.27-14.73,18.63-29.4,27.96-44.09.45-.71.84-1.47,1.36-2.38-1.55-1.04-2.89-1.94-4.29-2.88-.33.41-.49.59-.62.78-10.56,14.92-21.13,29.85-31.67,44.78-.35.5-.67,1.14-.7,1.73-.09,1.82-.03,3.65-.03,5.78ZM454.64,352.27c1.29-.2,2.39-.51,3.48-.5,1.9,0,3.06-.93,4.08-2.43,8.87-13.08,17.8-26.13,26.7-39.19.39-.58.71-1.2,1.16-1.98-1.41-1.07-2.7-2.06-4.12-3.13-.72.9-1.27,1.57-1.8,2.26-9.04,11.78-18,23.62-27.18,35.29-2.29,2.91-2.82,5.9-2.3,9.68ZM501.19,315.84c-.45.64-.88,1.2-1.26,1.8-8.06,12.68-16.08,25.39-24.18,38.04-1.7,2.65-1.14,5.41-1.24,8.32,1.43-.17,2.53-.35,3.63-.43,1.73-.13,2.89-.89,3.77-2.48,7.6-13.7,15.27-27.35,22.9-41.03.29-.53.47-1.12.75-1.8-1.1-.66-2.05-1.24-3.01-1.79-.4-.23-.84-.39-1.37-.64Z"/>
  <path class="cls-4" d="M94.28,583.89c-.59-.36-1.17-.74-1.77-1.08-2.23-1.24-4.55-2.33-6.69-3.71-4.27-2.76-6.56-6.76-7.44-11.78-2.09-11.96-4.38-23.88-6.55-35.82-1.13-6.21-2.21-12.42-3.3-18.64-.08-.45-.06-.92-.12-1.74,9.36-.09,18.59-.18,28.06-.26,2.96-13.1,5.88-26.06,8.89-39.37-1.12,0-1.9,0-2.68,0-2.48,0-4.96.01-7.44,0-3.5-.03-4.43-1.05-3.96-4.57.47-3.48,1.07-6.95,1.61-10.42,1.85-11.92,3.7-23.84,5.54-35.75.35-2.29.67-4.59,1.04-6.87.48-2.88,1.4-3.68,4.32-3.69,4.24-.03,8.48,0,12.72,0,.79,0,1.58,0,2.57,0,.53-2.3,1.03-4.47,1.52-6.63,2-8.8,4.03-17.59,5.99-26.4.31-1.39.42-2.85.45-4.28.07-2.88.01-5.76.03-8.64,0-.64,0-1.31.19-1.9.33-1.01,1.11-1.59,2.21-1.44.94.13,1.77.65,1.71,1.69-.12,2.06,1.19,2.76,2.79,3.34,4.46,1.64,9,2.81,13.79,2.72.53-.01,1.07.1,2.03.19-4.64,6.13-11.19,6.21-17.81,6.56,2.42,11.79,4.76,23.24,7.13,34.79,3.82,0,7.33,0,10.84,0,2.16,0,4.32-.04,6.48.02,2.66.07,3.64.95,3.91,3.54.99,9.54,1.95,19.08,2.94,28.61.84,8.11,1.7,16.21,2.55,24.32.03.32.1.63.12.95.16,2.55-.86,3.79-3.41,3.86-2.64.08-5.28.02-7.92.02-.87,0-1.74,0-2.99,0,2.51,13.07,5.23,25.82,7.81,38.61,2.58,12.83,5.22,25.65,7.89,38.72,5.9.26,11.76.09,17.92-.12,3.05-15.21,5.86-30.41,8.82-45.79-.92-.05-1.61-.13-2.31-.13-4.24-.01-8.48.02-12.72-.01-3.22-.02-4.22-1.05-3.83-4.25.81-6.66,1.74-13.31,2.63-19.96,1.21-9.03,2.43-18.05,3.64-27.08.67-4.99,1.3-9.98,2.01-14.96.39-2.8,1.31-3.56,4.4-3.58,5.6-.05,11.2-.01,16.79-.02.86,0,1.73,0,2.8,0,1.25-6.47,2.45-12.72,3.68-19.15-.77-.08-1.37-.19-1.97-.19-3.6-.02-7.2.01-10.8-.02-3.07-.03-4.02-1.14-3.62-4.15.84-6.34,1.68-12.67,2.51-19.01.4-3.05,1.28-3.87,4.32-3.88,4-.02,8,0,12-.01.86,0,1.72-.09,2.76-.15.46-2.32.9-4.5,1.32-6.68,1.36-6.98,2.93-13.92,3.98-20.95.65-4.32.5-8.76.69-13.14.04-.96-.04-1.93.06-2.88.11-1.02.62-1.86,1.72-2.04,1.17-.2,2.12.26,2.4,1.45.27,1.14,1.1,1.48,1.99,1.84,7.11,2.87,14.43,4.69,22.17,4.3.23-.01.46.04.96.08-.33.54-.53,1.02-.86,1.37-4.16,4.52-9.37,6.8-15.46,7.2-2.7.18-5.39.43-8.22.66.67,4.63,1.32,9.13,1.99,13.62.59,3.95,1.19,7.9,1.8,11.84.08.55.18,1.1.3,1.65.36,1.66.45,1.78,2.22,1.8,3.6.04,7.2.01,10.8.01,4.6,0,4.83.13,5.51,4.66.93,6.16,1.77,12.33,2.59,18.51.34,2.53-.75,3.81-3.33,3.86-3.76.07-7.52.02-11.28.03-.62,0-1.25.08-2.15.15.97,6.42,1.91,12.7,2.9,19.19,1.02,0,1.8,0,2.59,0,4.24,0,8.48-.02,12.72,0,3.57.02,4.43.84,4.91,4.44,1.88,14.09,3.77,28.19,5.66,42.28.82,6.1,1.63,12.19,2.44,18.29.07.55.12,1.12.12,1.67-.02,1.95-.89,2.98-2.88,3.11-1.99.13-4,.05-6,.06-2.86,0-5.73,0-8.98,0,2.24,15.38,4.56,30.49,6.92,45.91,7.49.02,14.86.01,22.48,0,.68-6.93,1.33-13.58,2.02-20.58-1.79,0-3.36,0-4.93,0-.72,0-1.45.04-2.16-.05-2.05-.25-2.85-1.13-2.66-3.2.26-2.86.66-5.71,1.05-8.56.41-3.01.84-6.01,1.3-9.01.37-2.41,1.04-3.01,3.45-3.06,1.98-.04,3.97,0,6.27,0,.63-6.28,1.24-12.36,1.87-18.68-.97-.08-1.74-.13-2.5-.2-2.27-.2-3.04-.95-2.84-3.21.26-3.02.68-6.03,1.09-9.04.4-3.01.81-6.02,1.32-9.01.3-1.8.92-2.5,2.66-2.5,1.72,0,2.16-1.01,2.6-2.26,3.51-9.94,6.92-19.92,10.6-29.8,1.7-4.57,2.78-9.13,2.38-14.02-.12-1.43,0-2.88-.02-4.32-.02-1.08.4-1.87,1.42-2.25.95-.35,1.63.09,2.37.7.78.64,1.69,1.19,2.63,1.56,4.8,1.92,9.8,2.78,15.39,2.58-2.08,2.99-4.66,4.75-7.77,5.5-2.99.72-6.09.98-9.47,1.49,3.84,13.53,7.67,27.01,11.52,40.59.84.06,1.54.12,2.23.15,2.53.11,3.32.72,3.68,3.16.56,3.71,1.03,7.44,1.54,11.16.27,1.98.54,3.96.78,5.94.29,2.37-.59,3.45-3.01,3.57-1.67.09-3.36,0-5.04.04-.46,0-.92.14-1.65.26,1.05,6.21,2.08,12.31,3.14,18.6,2.24,0,4.22-.02,6.21,0,2.6.04,3.3.52,3.69,3.08.86,5.77,1.63,11.55,2.37,17.33.27,2.12-.59,3.12-2.74,3.39-.87.11-1.76.07-2.63.08-.79.01-1.58,0-2.69,0,.77,6.89,2.16,13.46,3.24,20.23,3.23,0,6.25.12,9.25-.03,4.16-.2,8.26-.9,12.19-2.37,5.15-1.92,9.01-5.21,11.61-10.16,9.28-17.64,17.12-35.9,23.75-54.69.74-2.11,1.31-4.28,1.99-6.41.6-1.89.65-1.93,2.7-2.01,5.75-.22,11.5-.4,17.26-.62,1.76-.07,3.51-.21,5.27-.27.71-.02,1.44.01,2.13.15,1.34.28,2.37.99,2.65,2.43.25,1.31-.57,2.87-1.95,3.54-.85.41-1.79.69-2.72.89-4.77.99-9.53,2.07-14.33,2.83-2.39.38-3.54,1.4-4.26,3.71-6.5,20.89-13.02,41.78-19.73,62.61-3.38,10.49-7.18,20.84-10.78,31.25-.31.89-.49,1.83-.74,2.75-.88,1.95-1.82,3.88-2.63,5.86-1.08,2.65-2.06,5.34-3.09,8.02-.29.37-.66.7-.86,1.12-1.66,3.33-3.3,6.67-4.92,10.02-.16.33-.16.74-.23,1.12-1.51,2.02-3.03,4.03-4.52,6.05-.51.69-.97,1.42-1.46,2.14-.35.18-.76.3-1.05.55-1.93,1.66-4.13,2.27-6.66,2.06-1.34-.11-2.71.06-4.06.11-7.23-.03-14.45-.08-21.68-.09-2.78,0-5.56.07-8.33.12-3.75,0-7.49-.07-11.24,0-3.58.06-7.15.26-10.73.4-.59-.16-1.18-.44-1.77-.45-8.65-.03-17.31-.02-25.96,0-.52,0-1.04.24-1.56.37-7.05,0-14.11,0-21.16,0-.84-.13-1.68-.39-2.52-.38-7.16.11-14.31.27-21.47.42-.96.02-1.91.05-2.87.07-14.95,0-29.9.1-44.84-.03-6.22-.06-12.45-.51-18.66-.97-3.09-.23-6.15-.91-9.22-1.38-1.03-.42-2.04-.89-3.09-1.24-2.63-.87-4.86-2.32-6.74-4.35-.43-.46-.96-.82-1.45-1.23-.14-.28-.23-.59-.41-.84-3.48-4.85-6.23-10.09-8.52-15.59-.27-.64-.72-1.22-1.08-1.82-.52-1.74-1-3.5-1.59-5.22-.13-.37-.61-.78-1-.88-2.84-.71-5.7-1.36-8.56-2-.38-.08-.79-.01-1.19-.01ZM251.71,548.67c-2.34-15.44-4.65-30.63-6.93-45.72-3.86-.47-16.3-.32-17.95.17-.43,2.86-.31,43.69.17,45.56h24.71ZM145.89,510.64c.15,2.9.34,5.66.43,8.43.23,6.71.44,13.41.62,20.12.04,1.33.39,2.49,1.23,3.53,3.73,4.62,8.76,6.01,14.41,6.08.19-2.12-14.61-75.04-15.64-77.23h-7.85c.86,13.03,1.71,25.88,2.56,38.78,1.56.11,2.8.19,4.24.29ZM222.27,502.7c-6.26.07-12.2-.13-18.1.13-.53,3.73-.34,44.23.16,45.82h17.93v-45.94ZM124.35,510.58v-39.01h-14.78c-2.94,13.1-5.86,26.07-8.85,39.38,8.03-.13,15.75-.25,23.62-.37ZM299.83,548.5v-20.49c-5.08,0-10.05-.16-15.1.12-.7,6.93-1.45,13.6-1.94,20.37h17.05ZM320.68,548.37c0-.49.04-.81,0-1.11-.99-5.98-2-11.96-2.99-17.94-.21-1.28-1.08-1.43-2.11-1.41-1.83.04-3.67.1-5.5.12-1.89.02-3.79,0-5.8,0v20.33h16.41ZM128.83,510.41h8.62c-.85-13.04-1.68-25.9-2.52-38.83h-6.1v38.83ZM290.33,572.96c5.23.03,9.47-4.18,9.47-9.41,0-5.1-4.16-9.32-9.27-9.4-5.19-.08-9.54,4.14-9.6,9.32-.06,5.2,4.16,9.46,9.4,9.49ZM209.61,564.2c0,5.25,4.18,9.5,9.39,9.52,4.97.02,9.33-4.29,9.41-9.32.09-5.26-4.33-9.69-9.58-9.62-5.11.07-9.22,4.27-9.22,9.42ZM264.06,564c.04-5.3-4.06-9.46-9.35-9.47-5.19,0-9.35,4.03-9.43,9.16-.08,5.29,4.03,9.57,9.23,9.62,5.28.05,9.5-4.06,9.54-9.3ZM171.77,564.53c-.02,5.28,4.11,9.43,9.39,9.44,5.23,0,9.41-4.21,9.38-9.47-.03-5.14-4.15-9.29-9.29-9.36-5.21-.07-9.47,4.14-9.49,9.38ZM124.5,524.99c.38-2.45-.58-4.61-2.48-6.45-1.96-1.9-4.31-2.61-6.98-2.5-5.21.22-9.13,4.58-8.88,9.88.24,4.97,4.81,9.23,9.72,8.91,4.81-.31,9.5-4.19,8.62-9.85ZM199.3,502.7c-.35.18-.83.26-.94.51-.27.66-.41,1.37-.55,2.08-2.38,12.38-4.77,24.76-7.13,37.14-.4,2.07-.73,4.16-1.1,6.28h9.92c.45-3.71.29-44.16-.2-46.01ZM288.9,485.4c-.62,6.27-1.22,12.4-1.84,18.69h12.75v-18.69h-10.91ZM211.77,432.54c2,.69,8.5.71,10.44.09.49-2.89.35-17.28-.21-19.01h-6.59c-1.22,6.36-2.43,12.65-3.64,18.91ZM123.44,410.01h11.33c-1.73-8.53-3.43-16.9-5.13-25.27-.19,0-.37,0-.56,0-1.87,8.37-3.74,16.74-5.65,25.27ZM313.39,504.08c-.33-2-.62-3.79-.92-5.58-.65-3.85-1.31-7.71-1.94-11.56-.12-.73-.21-1.59-1.09-1.63-1.71-.08-3.43.03-5.16.06v18.72h9.11ZM299.81,436.4l-.47-.14c-2.9,8.35-6.02,16.63-8.81,25.13h9.28v-24.99ZM226.75,413.62v19.26h7.46c-.99-6.55-1.95-12.89-2.92-19.27-1.04-.05-1.75-.1-2.45-.1-.63,0-1.25.07-2.09.11ZM311.48,461.44c-.27-2.95-6.14-22.98-7.26-24.64v24.64h7.26ZM222.57,379.2c-.13,0-.25-.02-.38-.03-.32,2.44-.64,4.87-.97,7.33h2.16c-.28-2.53-.54-4.91-.81-7.3Z"/>
  <path class="cls-24" d="M91.97,642.85c1.01.05,2.03.08,3.04.15,8.97.62,17.5-1.12,25.57-5.01,1.7-.82,3.01-.79,4.69.04,14.8,7.29,29.72,7.18,44.57.21,2.41-1.13,4.35-1.2,6.75-.1,7.05,3.23,14.49,4.97,22.26,5.12,7.4.15,14.47-1.38,21.03-4.83,2.16-1.14,3.95-1.34,6.28-.35,8.41,3.59,17.25,4.4,26.32,3.55,7.3-.69,14.31-2.48,21.08-5.22,1.75-.71,3.11-.57,4.7.4,9.16,5.67,19.18,7.62,29.85,6.71,6.38-.54,12.39-2.3,18.11-5.08,1.34-.65,2.4-.75,3.79-.04,15.08,7.61,30.28,7.49,45.44.31,2.18-1.03,3.91-1.05,6.07-.07,6.98,3.16,14.31,4.98,22,5.23,7.75.25,15.1-1.37,21.95-4.98,1.96-1.03,3.63-1.11,5.65-.24,8.78,3.77,17.96,4.85,27.45,3.95,7.06-.67,13.85-2.32,20.41-4.95,1.46-.58,2.63-.58,4.03.3,6.16,3.89,13.01,5.69,20.23,5.92,3.58.11,7.17-.26,10.76-.41.61-.02,1.22,0,2.42,0-1.25,1.14-2.19,1.94-3.07,2.8-2.78,2.76-6.08,4.53-9.8,5.76-9.22,3.05-18.62,4.52-28.32,3.78-6.93-.53-13.54-2.31-19.63-5.71-1.5-.84-2.71-.89-4.19.07-10.6,6.89-22.12,8.2-34.27,5.5-5.32-1.18-10.43-3.02-15.31-5.44-1.66-.82-3.03-.84-4.69.13-7.47,4.34-15.56,6.64-24.2,6.77-9.08.13-17.6-1.97-25.21-7.08-1.51-1.02-2.67-.87-4.15-.01-13.14,7.64-26.93,8.91-41.28,3.99-3.5-1.2-6.73-3-9.59-5.33-1.57-1.28-2.92-1.46-4.78-.61-6.57,2.98-13.44,5.07-20.59,6.15-11.98,1.8-23.6.97-34.45-4.98-1.32-.72-2.32-.57-3.53.22-5.44,3.53-11.37,5.73-17.83,6.56-7.37.94-14.52-.07-21.51-2.31-3.56-1.14-7.04-2.6-10.46-4.13-1.71-.76-3.1-.77-4.71.17-8.82,5.12-18.35,7.28-28.51,6.62-7.56-.49-14.57-2.77-20.91-6.92-1.41-.92-2.52-1.02-3.93-.11-3.92,2.55-8.27,4.12-12.75,5.39-1.51.43-2.73.2-4.02-.74-4.52-3.29-8.91-6.73-12.94-10.61l.17-.49Z"/>
  <path class="cls-25" d="M127.91,617.07c3.07.47,6.13,1.15,9.22,1.38,6.21.47,12.44.92,18.66.97,14.95.13,29.9.03,44.84.03.57.24,1.12.57,1.71.71,5.79,1.41,11.67,1.59,17.55.95,2.56-.28,5.06-1.17,7.59-1.78,7.05,0,14.11,0,21.16,0,3.33,1.47,6.9,1.89,10.46,2.22,6.41.6,12.72.03,18.83-2.15,3.58-.14,7.15-.34,10.73-.4,3.74-.07,7.49,0,11.24,0,.34.18.67.43,1.04.53,7.05,2,14.21,2.69,21.45,1.49,2.55-.42,5.02-1.35,7.52-2.04,1.36-.05,2.72-.22,4.06-.11,2.53.21,4.73-.41,6.66-2.06.29-.25.7-.37,1.05-.55,5.58,2.62,11.53,3.71,17.63,4.09,9.97.63,19.6-1,28.87-4.65,2.36-.93,4.22-.93,6.45.49,5.01,3.19,10.68,4.53,16.56,5.13,10.95,1.12,21.32-.84,31.11-5.86,1.42-.73,2.51-.48,3.79.26,8.11,4.69,16.87,7.2,26.25,7.35,6.57.1,12.88-1.27,18.74-4.27,1.81-.93,3.19-.76,4.89.13,2.75,1.45,5.59,2.75,8.48,3.9,4.45,1.76,8.79,1.28,12.85-1.26,2.03-1.27,3.99-2.66,5.95-4.04.76-.54,1.51-.89,2.44-.52,2.89,1.13,5.77,2.26,8.94,3.49-2.06,3.22-3.49,6.72-7.38,8.6-10.59,5.12-21.47,6.47-32.82,3.2-3.74-1.08-7.11-2.91-9.86-5.69-1.22-1.24-2.31-1.32-3.82-.59-6.8,3.31-13.91,5.59-21.45,6.48-10.47,1.24-20.4-.22-29.56-5.66-1.22-.73-2.16-.98-3.46-.05-11.43,8.2-23.81,8.82-36.72,4.3-3.15-1.11-6.21-2.54-9.21-4.02-1.7-.84-3.05-.82-4.66.21-6.75,4.32-14.17,6.61-22.19,6.74-8.48.15-16.26-2.15-23.18-7.13-1.64-1.18-1.97-1.26-3.61-.17-7.64,5.06-16.03,7.4-25.19,7.03-8.16-.34-15.53-2.87-21.82-8.14-1.67-1.4-2.96-1.51-4.9-.59-9.87,4.72-20.22,7.42-31.27,6.87-6.74-.34-13.07-2.12-18.88-5.58-1.29-.77-2.38-1.06-3.73-.09-10.86,7.8-22.69,8.8-35.12,4.7-3.62-1.19-7.15-2.76-10.59-4.42-1.8-.87-3.16-.9-4.85.18-7.42,4.71-15.54,6.93-24.35,6.68-6.37-.19-12.28-1.9-17.78-5.07-.69-.4-1.42-.77-2.03-1.28-2.01-1.66-3.82-1.55-6.09-.17-2.84,1.73-5.9,3.26-9.06,4.28-10.13,3.27-20.14,2.84-29.87-1.72-1.86-.87-3.37-2.05-4.42-3.87-1.23-2.14-2.6-4.2-4.02-6.47.9-.39,1.61-.7,2.33-1,2.06-.86,4.21-1.55,6.17-2.61,1.64-.89,3.02-.97,4.72-.17,4.93,2.32,10.12,3.93,15.51,4.82,8.36,1.39,16.56.94,24.53-2.15.66-.26,1.28-.61,1.92-.92Z"/>
  <path class="cls-10" d="M118.07,661.95c1.43-.63,2.55-1.03,3.58-1.6,1.1-.6,2.03-.47,3.15.05,8.48,3.94,17.44,5.64,26.76,5.45,7.84-.16,15.39-1.79,22.57-4.9,2.48-1.08,4.61-1.03,7.09-.05,8.1,3.18,16.55,4.85,25.27,4.84,7.77,0,15.26-1.5,22.3-4.83,1.98-.93,3.71-.94,5.72-.18,9.45,3.57,19.26,4.32,29.26,3.48,7.93-.66,15.61-2.44,23.1-5.06,1.58-.55,2.87-.38,4.32.41,9.68,5.24,20.1,7.06,31.01,6.52,7.43-.36,14.53-2.08,21.35-4.99,1.37-.59,2.54-.53,3.88.06,16.23,7.1,32.56,7.07,48.89.41,2.46-1,4.66-1.07,7.15-.09,7.87,3.1,16.07,4.77,24.55,4.85,8.18.08,16.04-1.52,23.46-5.02,1.44-.68,2.78-.92,4.35-.3,8.45,3.33,17.26,4.57,26.3,4.38.39,0,.77.04,1.65.08-.91.59-1.44,1-2.03,1.3-5.54,2.85-11.1,5.67-16.64,8.52-2.81,1.45-5.85,2.14-8.95,2.54-12.29,1.58-24.07.01-35.07-5.97-1.56-.85-2.76-.59-4.25.11-15.31,7.24-31,8.32-47,2.58-2.9-1.04-5.62-2.65-8.3-4.22-1.45-.85-2.71-1.07-4.27-.44-9.2,3.67-18.78,5.79-28.64,6.44-10.58.7-20.91-.51-30.65-5.05-1.53-.71-2.79-.63-4.27.18-11.11,6.1-22.99,7.31-35.33,5.29-6.33-1.04-12.45-2.88-18.34-5.39-1.61-.69-2.97-.64-4.54.14-8.74,4.35-18.04,6.38-27.78,6.33-8.68-.05-16.99-1.86-24.68-5.97-2.31-1.24-4.19-1.17-6.5-.03-8.47,4.19-17.51,5.9-26.93,5.71-1.08-.02-2.27-.24-3.22-.73-9.11-4.64-18.18-9.36-27.26-14.06-.27-.14-.49-.36-1.07-.8Z"/>
  <path class="cls-24" d="M167.33,687.48c1.75-.29,3.31-.55,4.86-.79,5.17-.8,10.12-2.34,14.82-4.6,1.99-.96,3.68-.91,5.69-.07,8.26,3.45,16.88,5.4,25.87,5.42,7.86.02,15.42-1.54,22.47-5.06,2.13-1.06,3.93-1.06,6.13-.2,9.34,3.64,19.05,4.5,28.99,3.62,8.01-.71,15.75-2.56,23.27-5.38,1.45-.54,2.7-.5,4.1.27,16.94,9.27,34.31,9.45,51.94,2.21,2.12-.87,3.74-.82,5.82.1,16.17,7.19,32.4,6.93,48.53-.16,2.26-.99,4.11-1.04,6.36-.1,7.79,3.26,15.95,5.04,24.89,5.36-.87.54-1.35.89-1.88,1.15-7.34,3.53-14.69,7.06-22.06,10.53-1.06.5-2.26.85-3.42,1-11.23,1.39-21.99-.11-32.12-5.36-.14-.07-.31-.12-.42-.23-2.55-2.41-4.87-1.62-7.73-.13-9.98,5.17-20.7,6.79-31.87,5.61-8.19-.87-15.75-3.4-22.43-8.28-1.44-1.05-2.73-.89-4.25-.26-6.29,2.6-12.78,4.57-19.5,5.73-12.4,2.14-24.66,2.1-36.57-2.63-1.41-.56-2.82-1.15-4.15-1.87-1.28-.69-2.34-.61-3.57.14-4.18,2.56-8.68,4.4-13.44,5.58-9.31,2.3-18.58,1.78-27.72-.76-4.53-1.25-8.93-2.97-13.32-4.67-1.71-.66-3.15-.77-4.77.13-1.6.9-3.31,1.59-4.96,2.39-.77.37-1.46.39-2.26,0-5.52-2.71-11.07-5.37-16.6-8.05-.19-.09-.33-.3-.69-.63Z"/>
  <path class="cls-21" d="M204.07,704.52c7.25,1.74,14.55,2.87,22.05,2.8,8.34-.08,16.36-1.59,24.02-4.88,1.97-.84,3.7-.88,5.73-.18,9.96,3.43,20.24,4.35,30.72,3.68,9.23-.59,18.19-2.42,26.98-5.22,1.55-.49,2.92-.36,4.37.37,12.18,6.08,25.11,7.56,38.5,6.25,6.56-.64,12.88-2.28,19.01-4.68,1.17-.46,2.29-.65,3.47-.13,6.41,2.82,13.15,4.4,20.14,5.2-1.16,1.05-5.05,2.96-6.53,3.29-1.01.22-2.01.47-2.99.81-12.04,4.11-24.42,6.38-37.15,6.29-9.34-.07-18.46-1.56-27.1-5.29-1.45-.63-2.68-.62-4.09.09-12.28,6.21-25.27,7.51-38.73,5.47-6.9-1.04-13.6-2.84-20.09-5.36-1.85-.72-3.46-.67-5.28.16-6.88,3.14-14.13,5.03-21.65,5.82-.6.06-1.3,0-1.85-.25-9.87-4.52-19.73-9.08-29.59-13.63.02-.21.04-.41.06-.62Z"/>
  <path class="cls-21" d="M347.67,608.08c.07-.37.07-.79.23-1.12,1.62-3.35,3.26-6.69,4.92-10.02.21-.41.57-.75.86-1.12,1.99-.8,4.09-1.4,5.94-2.45,1.72-.98,2.99-.79,4.63.15,8.27,4.75,17.18,7.22,26.75,7.17,6.34-.03,12.36-1.44,18.01-4.29,1.66-.84,3.04-.85,4.71-.05,6.41,3.09,13.2,4.8,20.31,5.08,7.99.31,15.58-1.35,22.57-5.28,1.7-.96,3.11-1.11,4.91-.25,9.66,4.6,19.92,6.18,30.53,5.87,6.61-.19,13.01-1.42,19.18-3.79,1.11-.43,2.09-.48,3.18.17,7.71,4.59,16.19,6.15,25.04,6.24.64,0,1.28,0,1.92.03.15,0,.3.09.65.2-.34,2.2-1.51,4.09-2.41,6.32-5.77-.51-10.62-3.17-15.45-6.29-1.17.83-2.34,1.64-3.5,2.47-1.89,1.34-3.77,2.7-5.67,4.03-3.22,2.25-6.68,2.62-10.22.97-3.33-1.55-6.59-3.24-9.81-5-1.38-.76-2.43-.73-3.72.17-8.64,5.99-18.13,7.07-28.16,4.66-6.06-1.46-11.59-4.05-16.58-7.8-2.18-1.64-2.36-1.57-4.58,0-5.11,3.6-10.81,5.84-16.95,6.89-6.45,1.1-12.89,1.05-19.24-.78-3.97-1.15-7.56-2.98-10.59-5.85-1.71-1.62-1.97-1.64-4.23-.55-6.01,2.9-12.28,4.93-18.87,6.02-8.28,1.37-16.4.86-24.37-1.79Z"/>
  <path class="cls-10" d="M243.13,727.05c2.2-.81,4.13-1.21,5.73-2.18,3.45-2.08,6.5-1.65,10.03.09,6.52,3.21,13.64,4.26,20.86,4.87,9.44.8,18.24-1.28,26.66-5.33,1.46-.7,2.75-.83,4.32-.22,5.1,1.98,10.51,2.66,15.87,3.5,3.7.58,7.42,1.15,11.14,1.55,10.69,1.17,20.82-.82,30.43-5.58,1.63-.81,3.13-1.02,4.91.37-.92.46-1.65.85-2.4,1.19-8.56,3.92-17.07,7.97-25.71,11.7-5.93,2.56-12.04,4.68-18.08,6.97-4.78,1.81-9.58,3.54-14.34,5.38-2.1.81-4.05.91-6.27.21-7.53-2.38-15.09-4.67-22.71-6.76-12.19-3.35-24.06-7.53-35.33-13.32-1.55-.8-3.14-1.5-5.11-2.44Z"/>
  <path class="cls-17" d="M494.91,502.36q2.96,2.81,5.71.27c4.22-3.91,8.44-7.83,12.65-11.75,2.2-2.06,2.19-2.07.45-4.43-.18-.24-.28-.55-.51-1.02,1.04-.98,2.06-1.94,3.19-3.01.57.51,1.07.88,1.48,1.32,4.47,4.8,8.98,9.55,13.34,14.45,1.41,1.59,2.67,3.43,3.56,5.35,1.48,3.21,1.09,6.41-1.18,9.22-2.37,2.94-5.84,3.9-9.74,2.67-1.42-.45-2.77-1.12-4.41-1.8-.15,1.23-.3,2.29-.42,3.37-.29,2.54-.6,5.08-.82,7.63-.07.85-.04,1.79.25,2.59.94,2.6,3.1,3.53,5.72,2.53,8.21-3.12,16.41-6.27,24.61-9.4.59-.23,1.2-.44,2.09-.77,1.5,1.61,3.09,3.26,4.61,4.98.65.73.17,1.5-.19,2.22-1.74,3.5-3.48,7.01-5.21,10.52-2.19,4.44-4.34,8.9-6.57,13.32-.85,1.68-1.34,3.27.32,4.9-1.17,1.08-2.2,2.04-3.45,3.2-3.62-3.95-7.15-7.82-10.88-11.9,1.18-1.11,2.23-2.11,3.3-3.12.99.72,1.75,1.27,2.54,1.84,1.81-.91,2.24-2.72,3.07-4.2.16-.28-.08-.95-.35-1.26-1.85-2.1-3.74-4.16-5.67-6.19-.27-.29-.91-.52-1.25-.41-1.28.44-2.55.95-3.71,1.63-.35.21-.54,1.13-.4,1.61.19.65.77,1.19,1.33,1.97-1.05.99-2.13,2-3.63,3.4-.42-.65-.7-1.24-1.12-1.7-4.16-4.54-8.29-9.1-12.54-13.56-1.32-1.38-1.6-2.74-1.21-4.55.94-4.37,1.71-8.77,2.55-13.17.31-1.61.1-3.03-1.77-4.15-1.98,1.9-4.07,3.82-6.02,5.88-.31.33-.11,1.35.13,1.94.26.63.84,1.14,1.48,1.95-1.06.99-2.1,1.95-3.38,3.15-3.8-4.1-7.52-8.1-11.4-12.29,1.19-1.11,2.26-2.13,3.43-3.22ZM514.41,501.41c1.74,1.83,3.24,3.48,4.83,5.04.67.66,1.48,1.22,2.32,1.65,1.92.98,3.85.59,5.2-.92,1.32-1.47,1.55-3.22.21-5.02-1.79-2.4-3.84-4.61-5.87-7-2.33,2.18-4.41,4.12-6.68,6.25ZM541.25,536.32c1.58-2.96,3-5.64,4.43-8.33-.11-.15-.22-.29-.34-.44-2.87,1.16-5.73,2.32-8.86,3.59,1.69,1.83,3.12,3.39,4.77,5.17Z"/>
  <path class="cls-1" d="M265.31,264.26c-4.42,3.42-8.85,6.83-13.26,10.25-2.2,1.71-4.39,3.45-6.52,5.13-.39-.09-.65-.09-.84-.21-3.85-2.51-3.5-2.22-2.09-5.97,2.41-6.42,4.5-12.97,6.7-19.47.17-.51.22-1.06.43-2.15-.76.89-1.18,1.33-1.53,1.81-2.92,4.1-5.84,8.2-8.74,12.31-1.69,2.4-1.68,2.43.65,4.42.24.2.59.28.96.45-1.1,1.51-1.92,2.65-2.88,3.96-1.39-.97-2.63-1.81-3.85-2.68-1.96-1.38-3.93-2.75-5.86-4.17-1.49-1.1-1.51-1.35-.47-2.91.43-.65.94-1.26,1.36-1.82.3.04.48.01.59.08,2.92,1.67,3.1,1.65,5.01-1.04,3.43-4.82,6.84-9.65,10.25-14.48.18-.26.38-.52.54-.79.94-1.57.85-2.08-.53-3.25-.36-.3-.71-.6-1.11-.93.4-1.61,1.46-2.64,2.59-3.88,4.16,2.95,8.25,5.84,12.48,8.83-2.3,6.6-4.57,13.11-6.84,19.61.12.07.25.15.37.22,5.39-4.24,10.79-8.48,16.34-12.85,4.26,3.02,8.47,6,12.82,9.09-.91,1.31-1.71,2.47-2.46,3.54-.34,0-.51.05-.62,0-3.03-1.73-3.2-1.71-5.18,1.08-3.38,4.75-6.74,9.52-10.1,14.29-.28.39-.54.79-.81,1.19-.7,1.03-.58,1.93.42,2.71.5.39.98.8,1.64,1.35-.86,1.25-1.68,2.46-2.62,3.83-4.5-3.19-8.84-6.27-13.37-9.47.87-1.3,1.65-2.47,2.51-3.74.52.24.95.38,1.34.61,2.11,1.25,2.33,1.26,3.69-.67,3.22-4.56,6.39-9.17,9.58-13.75.32-.48.63-.97.95-1.45.09-.1.18-.2.27-.3-.08,0-.15-.01-.23-.02,0,.12,0,.23.01.35-.53.29-1.06.59-1.59.88Z"/>
  <path class="cls-20" d="M412.46,405.21c-1.8,1.9-3.65,3.86-5.5,5.82-.76.81-.64,1.61.11,2.3.52.48,1.13.85,1.81,1.34-1.37,1.4-2.41,2.46-3.58,3.65-3.97-3.84-7.85-7.6-11.8-11.42,1.19-1.08,2.29-2.07,3.42-3.1q2.96,2.15,5.74-.72c3.78-3.9,7.56-7.8,11.34-11.7.44-.46.9-.91,1.31-1.4,1.02-1.25,1-1.63-.13-2.87-.37-.41-.82-.76-1.39-1.29,1.07-1.13,2.14-2.26,3.29-3.47.62.5,1.12.86,1.56,1.28,4.65,4.5,9.33,8.96,13.9,13.55,1.45,1.46,2.77,3.13,3.79,4.9,1.96,3.41,1.51,7.52-.98,10.26-2.8,3.09-6.29,3.5-10.09,2.31-1.12-.35-2.2-.85-3.51-1.36-.11,1.27-.23,2.37-.3,3.47-.14,2.07-.23,4.15-.38,6.22-.25,3.44-.16,3.73,2.33,6.47-.99,1.04-2.01,2.1-3.18,3.33-2.47-2.37-4.87-4.58-7.12-6.91-.45-.46-.58-1.47-.49-2.18.55-4.84,1.13-9.67,1.86-14.48.28-1.82-.02-3.12-2.01-3.99ZM415.98,401.37c2.02,1.87,3.79,3.59,5.66,5.2.64.56,1.47.97,2.28,1.27,1.89.7,3.46.22,4.71-1.28,1.17-1.4,1.34-3.24.18-4.88-1.8-2.54-4.18-4.52-6.35-6.53-2.2,2.11-4.21,4.04-6.48,6.22Z"/>
  <path class="cls-1" d="M69.82,136.49c3.94,1.91,7.44,3.65,10.99,5.3,1.13.53,1.44,1.3,1.45,2.45.06,5.51.19,11.03.28,16.54.02.94,0,1.87.38,2.93.26-.43.56-.84.78-1.29,1.35-2.72,2.69-5.44,4.01-8.17,1.28-2.65,1.17-2.96-1.42-4.51-.2-.12-.38-.28-.67-.51.61-1.28,1.23-2.56,1.96-4.09,4.26,2.07,8.39,4.08,12.65,6.15-.68,1.44-1.29,2.73-1.86,3.93-.31.04-.5.12-.61.07-2.51-1.17-3.16-1.8-4.92,1.85-3.26,6.76-6.54,13.51-9.82,20.27-.41.85-.85,1.69-1.43,2.84-1.96-.96-3.87-1.73-5.58-2.82-.53-.34-.69-1.54-.71-2.36-.15-6.71-.24-13.43-.33-20.14-.02-1.55,0-3.1,0-4.66-.17-.03-.33-.06-.5-.08-.27.43-.58.84-.8,1.3-2.11,4.3-4.21,8.61-6.29,12.93-1.28,2.67-1.24,2.73,1.3,4.32.2.12.37.29.77.61-.55,1.24-1.11,2.51-1.79,4.06-4.37-1.93-8.46-3.98-12.76-6.16.66-1.42,1.24-2.69,1.78-3.84.35-.09.53-.19.65-.15,3.29,1.29,3.4,1.26,4.91-1.83,2.56-5.24,5.1-10.48,7.65-15.73.17-.36.36-.72.49-1.09.56-1.55.38-2.13-.98-3.01-.46-.3-.96-.54-1.67-.93.7-1.39,1.35-2.7,2.08-4.15Z"/>
  <path class="cls-1" d="M312.65,294.28c1.01-1.27,1.88-2.38,2.92-3.69,3.67,2.93,7.26,5.79,11.01,8.79-.97,1.25-1.83,2.36-2.77,3.57-.5-.28-.91-.48-1.29-.72-2.06-1.33-2.33-1.33-3.92.65-4.95,6.16-9.88,12.35-14.82,18.53-.54.67-1.1,1.32-1.77,2.12-1.7-1.34-3.26-2.57-4.81-3.8-.8-.63-.49-1.39-.32-2.18,1.45-6.87,2.88-13.74,4.3-20.61.28-1.37.52-2.75.44-4.28-.31.33-.64.64-.92.99-3.1,3.86-6.2,7.72-9.27,11.61-1.59,2.01-1.56,2.25.25,3.94.29.27.64.48,1.14.84-1.06,1.35-1.97,2.51-2.99,3.81-3.76-3-7.35-5.87-11.05-8.83,1-1.28,1.86-2.39,2.66-3.41.36.05.54.03.66.1q3.01,1.92,5.18-.78c3.54-4.43,7.07-8.87,10.61-13.3.35-.44.71-.87,1.02-1.33.93-1.4.89-1.88-.32-3.1-.39-.39-.89-.66-1.49-1.08,1.08-1.39,1.94-2.49,2.89-3.71.67.43,1.21.73,1.69,1.1,2.51,1.98,4.95,4.04,7.52,5.94,1.32.98,1.77,1.93,1.37,3.62-1.31,5.59-2.42,11.23-3.6,16.85-.12.58-.18,1.17.09,1.92,1.64-2.03,3.27-4.07,4.91-6.1.75-.93,1.52-1.86,2.22-2.82,1.28-1.75,1.23-2.16-.37-3.57-.29-.26-.58-.52-1.17-1.05Z"/>
  <path class="cls-20" d="M162.43,225.06c.8-1.34,1.49-2.48,2.21-3.69.44.1.75.11,1.02.24,2.76,1.28,2.8,1.3,4.34-1.2,3.19-5.16,6.36-10.35,9.53-15.52.17-.27.33-.55.48-.83.82-1.59.75-1.89-.67-3.01-.43-.34-.87-.66-1.48-1.12.76-1.28,1.47-2.48,2.27-3.81.8.39,1.45.65,2.04,1.01,4.43,2.71,8.87,5.41,13.25,8.19,1.55.98,3.05,2.07,4.41,3.29,3.72,3.32,5.24,7.49,4.71,12.48-.84,7.79-6.9,14.66-14.32,16.1-2.42.47-4.81.27-7.08-.58-2.46-.92-4.94-1.88-7.22-3.16-4.17-2.36-8.19-4.98-12.28-7.49-.33-.2-.63-.46-1.22-.89ZM188,207.09c-4.1,6.69-8.04,13.13-11.95,19.52,1.42,1.76,3.11,2.49,4.78,3.2,3.5,1.49,6.71.91,9.6-1.5,3.2-2.67,5.14-6.08,5.74-10.19.48-3.27-.56-6-3.33-7.93-1.5-1.04-3.07-1.97-4.85-3.1Z"/>
  <path class="cls-20" d="M200.41,240.57c.16-10.23,8.74-18.46,18.86-18.01,9.88.44,18.63,9.41,18.25,19.01-.33,8.29-7.51,18.23-18.83,17.45-7.9-.54-15.96-7.23-17.74-14.68-.29-1.23-.37-2.52-.55-3.78ZM208.51,244.31c.25,1.08.36,2.21.79,3.22,1.93,4.54,7.32,6.23,11.67,3.61,4.64-2.8,7.39-7.07,8.32-12.31,1.14-6.41-4.69-11.33-10.52-9.11-5.43,2.07-10.09,8.78-10.26,14.59Z"/>
  <path class="cls-1" d="M340.2,354.28c-1.75.88-3.16.7-4.13-.8-.29-.45-.48-1.3-.25-1.69,2.06-3.49,4.23-6.92,6.43-10.47.88.4,1.52.67,2.15.99,2.03,1.04,2.01,1.17,1.52,3.35-1.14,5.17-.42,9.89,3.77,13.56.87.76,2.01,1.36,3.12,1.65,2.24.57,3.98-1.16,3.52-3.44-.22-1.07-.68-2.13-1.21-3.1-1.11-2.03-2.39-3.97-3.5-6-.96-1.75-1.9-3.52-2.63-5.37-2.62-6.64,2.31-12.07,8.17-12.43,3.74-.23,6.85,1.27,9.54,3.74,2.1,1.93,3.48,4.34,4.53,7.1,2.08-.7,3.11.62,4.33,2.15-1.77,3.31-3.56,6.66-5.48,10.25-1.42-.69-2.67-1.3-4.12-2,.14-1.29.32-2.54.4-3.79.24-3.68-.71-6.97-3.44-9.58-1.94-1.86-3.84-2.31-5.09-1.3-1.18.95-1.28,2.86-.04,5.08,1.44,2.58,3.07,5.05,4.52,7.63.86,1.52,1.72,3.1,2.23,4.76,2.03,6.63-2.54,12.58-9.47,12.45-2.7-.05-5.18-.91-7.44-2.35-3.15-2-5.23-4.88-6.62-8.29-.24-.58-.45-1.17-.8-2.08Z"/>
  <path class="cls-1" d="M484.13,450.44q2.2.09,4.17,2.5c-1.93,3.2-3.93,6.51-6.01,9.96-1.34-.73-2.51-1.37-3.91-2.13.11-.87.2-1.79.36-2.7.7-4.16.1-7.98-3-11.09-.61-.61-1.35-1.16-2.14-1.49-2.16-.93-3.92.34-3.71,2.7.08.92.45,1.86.87,2.71,1.17,2.36,2.5,4.64,3.65,7.01.83,1.72,1.67,3.47,2.18,5.3,1.98,7.11-3.7,13.4-10.98,12.03-6.27-1.18-10.29-5.15-12.44-11.08-.27-.74-.47-1.5-.7-2.24-2.77.62-3.06.49-4.82-2.22,2.47-3.5,4.98-7.07,7.44-10.55.4.09.57.09.7.16,3.24,1.73,3.2,1.72,2.47,5.2-1.01,4.83-.32,9.25,3.41,12.8.79.75,1.78,1.42,2.81,1.75,2.34.76,4.25-.86,3.88-3.28-.19-1.23-.7-2.45-1.25-3.59-1.04-2.15-2.3-4.21-3.32-6.37-.85-1.8-1.67-3.65-2.16-5.56-1.8-6.91,3.98-12.71,10.93-11.07,4.55,1.07,7.91,3.69,10.06,7.83.55,1.05.96,2.18,1.51,3.43Z"/>
  <path class="cls-17" d="M113.93,181.12c.31,2.33.36,4.44.91,6.41,1.21,4.33,3.76,7.57,8.32,8.76.79.21,1.76.15,2.54-.11,1.65-.56,2.3-2.02,1.61-3.65-.43-1-1.07-1.97-1.81-2.78-1.95-2.12-4.05-4.09-6-6.21-1.18-1.29-2.34-2.65-3.25-4.13-3.85-6.31.17-13.62,7.58-13.91,5.17-.2,9.31,1.84,12.59,5.75.26.31.48.64.73.95.2.25.4.49.67.81.37-.14.72-.32,1.09-.4,1.95-.42,3.6,1,3.18,2.89-.7,3.19-1.56,6.34-2.41,9.73-.87-.12-1.64-.18-2.39-.33-2.28-.48-2.22-.5-2.42-2.75-.4-4.29-2.06-7.88-5.99-10.04-.88-.48-1.94-.82-2.93-.87-1.96-.1-3.06,1.21-2.49,3.09.35,1.17,1.12,2.29,1.96,3.2,1.94,2.12,4.1,4.04,6.05,6.16,1.24,1.34,2.46,2.77,3.33,4.36,3.24,5.95-.44,13.03-7.17,13.87-6.37.79-11.38-1.68-15.25-6.67-.53-.68-1-1.41-1.61-2.27-1.92,2.05-3.46.97-5.13-.44.66-2.1,1.33-4.21,1.99-6.32.5-1.6.97-3.21,1.46-4.81.33-1.09,1.01-1.6,2.17-1.21.9.3,1.8.6,2.69.9Z"/>
  <path class="cls-1" d="M455.78,420.03c-1.05,1.16-2,2.2-3.05,3.37-.7-.58-1.3-1.08-1.9-1.57-.88-.72-1.8-.71-2.58.08-3.94,3.97-7.98,7.85-11.71,12.01-2.41,2.69-2.05,5.76.39,8.14,2.5,2.44,5.77,2.73,8.41.38,3.22-2.87,6.2-6,9.28-9.03.74-.73,1.47-1.47,2.18-2.23,1.38-1.48,1.38-1.81.03-3.42-.25-.3-.52-.6-.92-1.06,1.14-1,2.25-1.97,3.4-2.98,2.99,3.12,6.12,6.39,9.39,9.81-.77.81-1.73,1.84-2.81,2.98-.69-.55-1.28-1.04-1.88-1.51-.88-.69-1.77-.67-2.61.07-.66.58-1.3,1.19-1.92,1.81-2.77,2.77-5.52,5.56-8.28,8.34-.17.17-.35.33-.52.5-4.96,4.6-9.35,5.34-14.82,2.51-5.78-3-9.07-8.8-8.34-14.67.26-2.07,1.19-3.82,2.59-5.29,3.26-3.41,6.59-6.75,9.89-10.12.67-.69,1.38-1.34,2-2.07,1.17-1.36,1.15-1.7.03-3.09-.34-.43-.71-.83-1.17-1.37.51-.59.95-1.14,1.43-1.64.49-.51,1.03-.98,2-1.97,3.78,3.95,7.56,7.91,11.5,12.03Z"/>
  <path class="cls-1" d="M325.61,304.84c1.04-1.17,1.93-2.17,3.03-3.41,4.17,3.72,8.24,7.35,12.43,11.09-1.11,1.25-2.05,2.29-2.89,3.24-.41-.09-.6-.08-.71-.17-2.68-2-2.85-2.01-5.07.45-2.84,3.14-5.66,6.3-8.43,9.49-.78.9-1.48,1.9-2.03,2.95-1.36,2.63-.8,5.1,1.47,7.08,2.28,1.98,5.17,2.29,7.49.64,1.03-.73,1.94-1.67,2.79-2.61,2.85-3.13,5.63-6.32,8.48-9.46,1.9-2.09,1.8-2.68-.05-4.31-.23-.2-.36-.5-.66-.92.95-1.08,1.87-2.14,2.97-3.4,3.54,3.17,6.96,6.23,10.52,9.41-1.1,1.24-2.03,2.29-2.88,3.26-.38-.09-.56-.09-.68-.17-2.9-2.01-2.94-2.02-5.25.57-2.72,3.04-5.35,6.15-8.16,9.09-1.42,1.49-3.02,2.87-4.74,3.97-2.62,1.69-5.57,1.89-8.52.89-5.77-1.96-9.71-5.63-10.99-11.83-.67-3.22.06-6.04,2.08-8.52,2.07-2.54,4.27-4.97,6.42-7.43,1.47-1.68,3.01-3.31,4.45-5.02,1.5-1.77,1.46-2.06-.1-3.83-.26-.29-.52-.59-.96-1.09Z"/>
  <path class="cls-25" d="M106.61,592c.37.6.81,1.17,1.08,1.82,2.29,5.5,5.04,10.74,8.52,15.59.18.25.28.56.41.84-6.42,1.33-12.77.74-18.93-1.23-4.09-1.31-8.06-3.03-11.97-4.83-1.78-.82-3.11-.99-4.84.15-3.55,2.33-7.42,4.06-11.56,5.12-.3.08-.6.12-1.1.21-2.07-4.18-3.47-8.56-4.86-13.24.77,0,1.37-.08,1.95.01,12.68,2.06,24.82-.07,36.59-4.8,1.77-.71,3.2-.58,4.7.36Z"/>
  <path class="cls-1" d="M372.72,381.09q3.47,2.25,6.35-.74c3.82-3.97,7.62-7.96,11.44-11.94,1.88-1.96,2.49-2.55.05-4.86-.11-.1-.15-.27-.33-.6.47-.51.96-1.1,1.5-1.64.5-.49,1.06-.92,1.66-1.43.55.46,1.05.84,1.51,1.28,5.72,5.46,11.43,10.93,17.13,16.41,1.64,1.57,1.64,1.6.7,3.69-1.23,2.75-2.49,5.49-3.79,8.36-.63-.24-1.07-.38-1.49-.56-2.72-1.11-2.64-1.1-2.05-3.94.54-2.59.29-5.11-1.47-7.26-.66-.8-1.36-1.57-2.09-2.3-1.06-1.06-2.17-2.07-3.43-3.26-2.1,2.19-4.07,4.25-6.03,6.3,3.25,4.12,3.87,3.57,7.28.29.95,1.05,1.9,2.1,2.91,3.22-3.43,3.57-6.84,7.12-10.36,10.79-1.2-1.08-2.18-1.97-3.12-2.82,3.16-4.16,3.12-4.77-.46-7.55-1.83,1.93-3.7,3.87-5.53,5.85-.74.8-.46,1.57.16,2.35,1.56,1.94,1.54,1.96-.22,3.7-.4.39-.81.77-1.43,1.35-3.91-3.74-7.81-7.47-11.91-11.38,1.07-1.16,2.05-2.24,3.02-3.3Z"/>
  <path class="cls-1" d="M507.93,489.24c-1.47-.73-2.73-1.37-4.2-2.1.28-1.05.5-2.03.79-2.99.55-1.79.77-3.58.35-5.43-.25-1.11-.61-2.15-1.92-2.81-.55.44-1.19.89-1.76,1.42-4.47,4.22-8.93,8.45-13.39,12.7-2.27,2.16-2.26,2.17-.41,4.65.14.19.2.43.46.99-.94.88-1.95,1.83-3.21,3.01-3.84-4.05-7.54-7.95-11.51-12.13,1.19-1.07,2.24-2,3.47-3.1.51.46,1.02.91,1.52,1.38.82.76,1.67.89,2.55.12.12-.1.25-.19.37-.3,5.1-4.84,10.2-9.67,15.29-14.52.21-.2.31-.53.55-.97-3.38-3.42-7.18-2.07-11.1-1.02-.61-1.33-1.19-2.61-1.83-4.01.51-.38.9-.78,1.38-1,2.83-1.29,5.67-2.56,8.53-3.8,1.76-.76,3.22.17,3.52,2.11.09.57.29,1.22.66,1.62,3.71,3.97,7.46,7.89,11.2,11.84.57.6,1.15.86,2.04.96,1.5.17,2.41,1.73,1.83,2.96-1.63,3.44-3.38,6.83-5.18,10.41Z"/>
  <path class="cls-1" d="M263.67,293.66c1.09-1.4,1.95-2.52,2.8-3.61.41.21.64.3.83.43,2.54,1.65,2.65,1.66,4.43-.66,3.7-4.82,7.37-9.66,11.05-14.5.24-.32.49-.64.69-.98.86-1.46.79-1.89-.54-3.06-.36-.31-.75-.59-1.36-1.07.92-1.22,1.8-2.39,2.83-3.77,4.44,3.39,8.73,6.66,13.2,10.07-.94,1.28-1.76,2.42-2.65,3.63-.37-.17-.66-.26-.91-.42-2.47-1.57-2.76-1.55-4.48.69-3.7,4.82-7.37,9.66-11.05,14.49-.24.32-.46.66-.7.97-.75,1-.69,1.9.28,2.73.49.41.95.84,1.6,1.42-.89,1.2-1.76,2.37-2.78,3.73-4.44-3.39-8.73-6.66-13.25-10.11Z"/>
  <path class="cls-1" d="M103.63,186.72c-.72,1.35-1.35,2.54-2.15,4.04-4.96-2.52-9.77-5.09-14.7-7.8.75-1.4,1.41-2.64,2.04-3.81.31-.03.48-.1.61-.05q3.24,1.42,4.91-1.7c2.73-5.15,5.46-10.3,8.18-15.46.22-.42.43-.85.66-1.28.59-1.11.36-1.99-.71-2.66-.54-.33-1.07-.66-1.82-1.12.72-1.36,1.41-2.66,2.17-4.1,4.96,2.63,9.72,5.16,14.66,7.78-.75,1.44-1.4,2.69-2.01,3.85-.33.03-.51.1-.64.04q-3.26-1.39-4.91,1.7c-2.7,5.08-5.39,10.16-8.08,15.24-.22.42-.46.85-.65,1.28-.7,1.6-.59,2.01.82,2.98.45.31.92.6,1.63,1.06Z"/>
  <path class="cls-1" d="M162.53,185.26c-.84,1.5-1.49,2.67-2.09,3.74-.35.02-.53.09-.65.03q-3.27-1.41-4.98,1.61c-2.86,5.08-5.71,10.16-8.55,15.24-1.59,2.85-1.58,2.85,1.15,4.67.13.09.23.21.59.55-.67,1.2-1.38,2.48-2.21,3.95-4.88-2.75-9.58-5.39-14.5-8.16.78-1.42,1.45-2.65,2.09-3.8.31-.03.49-.1.6-.05q3.23,1.51,4.96-1.52c2.83-5,5.64-10.02,8.45-15.02.27-.49.57-.96.8-1.47.65-1.44.53-1.81-.79-2.79-.5-.37-1.02-.73-1.62-1.16.76-1.32,1.46-2.54,2.28-3.97,4.87,2.74,9.56,5.39,14.47,8.15Z"/>
  <path class="cls-5" d="M204.07,704.52c-.02.21-.04.41-.06.62-.72-.31-1.44-.63-2.16-.94.03-.11.07-.21.1-.32.71.21,1.42.42,2.12.64Z"/>
  <path class="cls-14" d="M266.85,263.34l-.95,1.45c-.2-.18-.39-.36-.59-.54.53-.29,1.06-.59,1.59-.88l-.06-.03Z"/>
  <path class="cls-5" d="M200.83,703.58c-.12-.03-.18-.05-.24-.05-.02,0-.04.07-.06.1.08-.01.16-.03.3-.06Z"/>
  <path class="cls-15" d="M542.6,197.03c-2.74.33-5.48.67-8.23.98-1.98.22-3.97.39-5.96.58-2.01.19-2.2.34-2.37,2.23-.52,6.05-1.01,12.1-1.54,18.14-.33,3.81-.7,7.62-1.1,11.91-.47-.74-.78-1.12-.97-1.55-3.57-8.2-7.14-16.4-10.69-24.6-1.08-2.5-1.06-2.52-3.91-2.49-9.43.08-18.86.17-28.29.25-.76,0-1.53,0-2.42-.42.4-.32.77-.67,1.19-.95,7.18-4.93,14.36-9.86,21.54-14.79,1.8-1.24,1.8-1.25,1.07-3.26-1.76-4.88-3.53-9.76-5.29-14.64-.26-.73-.49-1.47-.84-2.55.8.3,1.31.43,1.75.66,5.58,2.94,11.18,5.85,16.71,8.88,1.71.94,3.01.83,4.58-.31,4.79-3.46,9.68-6.79,14.54-10.16.62-.43,1.28-.82,1.92-1.23.14.1.29.21.43.31-1.93,7.63-3.86,15.26-5.87,23.19,4.61,3.07,9.24,6.14,13.86,9.21-.04.2-.09.4-.13.59Z"/>
  <path class="cls-8" d="M441.95,233.76c-.16-.34-.35-.67-.49-1.02-2.57-6.54-5.22-13.05-7.67-19.63-.84-2.26-2.19-3.23-4.54-3.51-5.7-.69-11.38-1.58-17.14-2.61,5.49-3.15,11.35-5.48,17.2-8.48-2.15-6.88-4.88-13.48-7.23-20.78,1.14.66,1.8,1.03,2.44,1.43,5.06,3.21,10.14,6.38,15.14,9.69,1.68,1.11,3.09,1.16,4.88.28,5.95-2.91,11.97-5.68,17.97-8.5.7-.33,1.42-.62,2.32-.76-1.33,2.7-3.1,5.08-4.73,7.54-1.67,2.53-3.39,5.03-5.27,7.82,5.05,4.56,10.09,9.12,15.14,13.69l-.2.51h-22.52c-1.63,8.28-3.22,16.33-4.8,24.37-.16-.01-.33-.02-.49-.03Z"/>
  <path class="cls-22" d="M492.5,282.72c6.57-3.17,13.13-6.34,19.94-9.62-2.42-8.47-4.79-16.78-7.16-25.08.21-.14.41-.28.62-.42.41.58.77,1.21,1.24,1.73,4.77,5.27,9.56,10.53,14.35,15.79,1.43,1.57,1.44,1.58,3.43.65,4.7-2.2,9.39-4.42,14.64-6.89-.52,1.01-.76,1.62-1.11,2.14-2.38,3.6-4.7,7.24-7.23,10.73-1.3,1.8-1.44,3.22-.21,5.16,2.95,4.65,5.66,9.46,8.46,14.2.43.73.82,1.49,1.52,2.75-5.11-1.91-9.71-3.63-14.6-5.46-1.32,6.15-1.91,12.29-3.2,18.93-.49-1.11-.81-1.69-1.02-2.31-1.94-5.75-3.91-11.48-5.77-17.26-.53-1.66-1.37-2.44-3.18-2.58-6.13-.47-12.25-1.1-18.37-1.68-.75-.07-1.5-.19-2.25-.28-.03-.16-.06-.33-.09-.49Z"/>
  <path class="cls-6" d="M438.19,301.14c.14-2.22.22-4.28.43-6.32.05-.5.48-.98.8-1.43,18.18-24.72,36.37-49.44,54.56-74.15.42-.57.89-1.09,1.51-1.84,1.45.97,2.8,1.88,4.27,2.86-.49.79-.84,1.4-1.23,1.98-17.35,25.11-34.73,50.21-52.02,75.36-1.35,1.96-2.82,3.13-5.21,3.16-.93.01-1.87.22-3.11.37Z"/>
  <path class="cls-11" d="M499.59,225.34c1.57.95,2.92,1.76,4.39,2.64-.35.68-.6,1.24-.92,1.76-13.71,22.51-27.42,45.02-41.13,67.53-1.41,4.01-4.68,4.52-8.55,4.43.2-3-.28-5.84,1.61-8.69,14.45-21.76,28.74-43.62,43.08-65.45.43-.66.89-1.31,1.52-2.22Z"/>
  <path class="cls-11" d="M486.1,216.54c1.5,1.15,2.74,2.11,4.09,3.15-.38.61-.62,1.1-.94,1.52-15.46,20.18-30.93,40.34-46.37,60.53-1.04,1.35-2.2,2.23-3.97,2.28-1.17.03-2.34.31-3.62.5,0-2.18-.13-4.16.07-6.11.08-.76.84-1.5,1.39-2.17,10.83-13.14,21.67-26.26,32.51-39.39,4.89-5.92,9.77-11.83,14.66-17.75.66-.79,1.33-1.57,2.17-2.56Z"/>
  <path class="cls-6" d="M373.97,293.68c.14-2.41.23-4.39.4-6.36.04-.44.36-.87.63-1.26,13.97-19.97,27.95-39.93,41.93-59.9.18-.25.4-.48.78-.91,1.38.94,2.73,1.86,4.3,2.94-.66,1.05-1.23,1.98-1.82,2.9-12.74,19.74-25.49,39.47-38.18,59.23-1.13,1.76-2.38,2.91-4.58,2.87-1.01-.02-2.02.27-3.46.48Z"/>
  <path class="cls-6" d="M406.83,223.57c1.38,1.08,2.67,2.1,4.07,3.2-.62.91-1.09,1.64-1.6,2.33-11.47,15.57-22.96,31.13-34.38,46.73-1.5,2.05-3.01,3.69-5.79,3.53-.83-.05-1.68.22-2.82.38.14-3.43-.13-6.33,2.24-9.19,12.42-15.03,24.6-30.27,36.87-45.42.39-.49.84-.93,1.42-1.56Z"/>
  <path class="cls-11" d="M422.99,234.5c1.52.9,2.87,1.71,4.36,2.6-.39.78-.68,1.42-1.02,2.03-9.29,16.59-18.6,33.16-27.84,49.77-.99,1.79-2.14,2.87-4.28,2.82-1-.03-2.01.26-3.24.44,0-2.1-.06-4,.03-5.9.03-.59.38-1.21.71-1.74,10.12-16.29,20.25-32.56,30.39-48.84.21-.33.47-.63.89-1.18Z"/>
  <path class="cls-6" d="M460.27,363.1c0-2.13-.06-3.96.03-5.78.03-.59.35-1.23.7-1.73,10.54-14.94,21.11-29.86,31.67-44.78.14-.19.3-.37.62-.78,1.4.94,2.74,1.84,4.29,2.88-.52.91-.91,1.67-1.36,2.38-9.33,14.69-18.69,29.36-27.96,44.09-1.31,2.08-2.77,3.42-5.32,3.34-.78-.02-1.56.21-2.68.37Z"/>
  <path class="cls-6" d="M454.64,352.27c-.52-3.78.01-6.76,2.3-9.68,9.18-11.67,18.14-23.51,27.18-35.29.53-.69,1.08-1.36,1.8-2.26,1.42,1.08,2.72,2.07,4.12,3.13-.45.77-.76,1.4-1.16,1.98-8.9,13.06-17.82,26.11-26.7,39.19-1.02,1.5-2.18,2.44-4.08,2.43-1.09,0-2.19.3-3.48.5Z"/>
  <path class="cls-11" d="M501.19,315.84c.53.24.97.41,1.37.64.96.55,1.91,1.13,3.01,1.79-.28.68-.46,1.28-.75,1.8-7.64,13.67-15.31,27.33-22.9,41.03-.88,1.58-2.04,2.35-3.77,2.48-1.1.08-2.2.25-3.63.43.1-2.91-.46-5.67,1.24-8.32,8.1-12.65,16.13-25.36,24.18-38.04.38-.6.81-1.16,1.26-1.8Z"/>
  <path class="cls-9" d="M251.71,548.67h-24.71c-.48-1.87-.6-42.7-.17-45.56,1.64-.49,14.08-.64,17.95-.17,2.29,15.09,4.59,30.28,6.93,45.72Z"/>
  <path class="cls-23" d="M145.89,510.64c-1.44-.1-2.68-.18-4.24-.29-.85-12.9-1.7-25.75-2.56-38.78h7.85c1.03,2.19,15.83,75.11,15.64,77.23-5.64-.07-10.68-1.46-14.41-6.08-.84-1.04-1.2-2.2-1.23-3.53-.18-6.71-.38-13.41-.62-20.12-.1-2.77-.28-5.54-.43-8.43Z"/>
  <path class="cls-2" d="M222.27,502.7v45.94h-17.93c-.51-1.58-.69-42.08-.16-45.82,5.89-.26,11.84-.06,18.1-.13Z"/>
  <path class="cls-3" d="M124.35,510.58c-7.88.12-15.59.25-23.62.37,2.99-13.31,5.91-26.28,8.85-39.38h14.78v39.01Z"/>
  <path class="cls-12" d="M299.83,548.5h-17.05c.5-6.77,1.24-13.45,1.94-20.37,5.05-.27,10.02-.12,15.1-.12v20.49Z"/>
  <path class="cls-3" d="M320.68,548.37h-16.41v-20.33c2.01,0,3.9.02,5.8,0,1.83-.02,3.67-.08,5.5-.12,1.03-.02,1.9.13,2.11,1.41.98,5.98,1.99,11.96,2.99,17.94.05.3,0,.62,0,1.11Z"/>
  <path class="cls-12" d="M128.83,510.41v-38.83h6.1c.84,12.93,1.67,25.79,2.52,38.83h-8.62Z"/>
  <path class="cls-23" d="M290.33,572.96c-5.24-.03-9.45-4.29-9.4-9.49.06-5.18,4.41-9.4,9.6-9.32,5.11.08,9.27,4.3,9.27,9.4,0,5.23-4.24,9.44-9.47,9.41Z"/>
  <path class="cls-23" d="M209.61,564.2c0-5.15,4.11-9.35,9.22-9.42,5.25-.07,9.67,4.36,9.58,9.62-.08,5.03-4.44,9.35-9.41,9.32-5.21-.03-9.39-4.27-9.39-9.52Z"/>
  <path class="cls-23" d="M264.06,564c-.04,5.25-4.26,9.36-9.54,9.3-5.21-.05-9.31-4.33-9.23-9.62.08-5.13,4.24-9.17,9.43-9.16,5.29.01,9.39,4.17,9.35,9.47Z"/>
  <path class="cls-23" d="M171.77,564.53c.02-5.24,4.28-9.45,9.49-9.38,5.14.07,9.26,4.22,9.29,9.36.03,5.26-4.15,9.48-9.38,9.47-5.28,0-9.41-4.16-9.39-9.44Z"/>
  <path class="cls-23" d="M124.5,524.99c.88,5.65-3.81,9.53-8.62,9.85-4.91.32-9.49-3.94-9.72-8.91-.25-5.3,3.67-9.66,8.88-9.88,2.67-.11,5.02.6,6.98,2.5,1.9,1.84,2.86,3.99,2.48,6.45Z"/>
  <path class="cls-12" d="M199.3,502.7c.49,1.85.65,42.3.2,46.01h-9.92c.37-2.12.71-4.21,1.1-6.28,2.37-12.38,4.75-24.76,7.13-37.14.14-.7.27-1.42.55-2.08.1-.25.59-.33.94-.51Z"/>
  <path class="cls-12" d="M288.9,485.4h10.91v18.69h-12.75c.62-6.28,1.22-12.42,1.84-18.69Z"/>
  <path class="cls-12" d="M211.77,432.54c1.21-6.26,2.42-12.55,3.64-18.91h6.59c.56,1.73.7,16.11.21,19.01-1.94.61-8.44.59-10.44-.09Z"/>
  <path class="cls-12" d="M123.44,410.01c1.91-8.53,3.78-16.9,5.65-25.27.19,0,.37,0,.56,0,1.7,8.37,3.4,16.74,5.13,25.27h-11.33Z"/>
  <path class="cls-23" d="M313.39,504.08h-9.11v-18.72c1.73-.03,3.45-.13,5.16-.06.88.04.97.89,1.09,1.63.63,3.86,1.3,7.71,1.94,11.56.3,1.79.59,3.59.92,5.58Z"/>
  <path class="cls-5" d="M299.81,436.4v24.99h-9.28c2.79-8.5,5.91-16.78,8.81-25.13l.47.14Z"/>
  <path class="cls-5" d="M226.75,413.62c.84-.05,1.46-.11,2.09-.11.71,0,1.41.06,2.45.1.97,6.38,1.93,12.72,2.92,19.27h-7.46v-19.26Z"/>
  <path class="cls-12" d="M311.48,461.44h-7.26v-24.64c1.11,1.66,6.99,21.69,7.26,24.64Z"/>
  <path class="cls-14" d="M277.94,619.4c-6.11,2.18-12.42,2.75-18.83,2.15-3.56-.33-7.13-.76-10.46-2.22.52-.13,1.04-.36,1.56-.37,8.65-.03,17.31-.03,25.96,0,.59,0,1.18.29,1.77.45Z"/>
  <path class="cls-14" d="M329.92,618.99c-2.5.69-4.97,1.62-7.52,2.04-7.25,1.2-14.41.51-21.45-1.49-.37-.1-.69-.35-1.04-.53,2.78-.04,5.56-.12,8.33-.12,7.23.01,14.45.06,21.68.09Z"/>
  <path class="cls-14" d="M227.49,619.33c-2.53.61-5.03,1.5-7.59,1.78-5.88.64-11.76.46-17.55-.95-.59-.14-1.14-.47-1.71-.71.96-.02,1.91-.05,2.87-.07,7.16-.15,14.31-.31,21.47-.42.84-.01,1.68.24,2.52.38Z"/>
  <path class="cls-5" d="M222.57,379.2c.26,2.39.53,4.78.81,7.3h-2.16c.32-2.46.65-4.9.97-7.33.13,0,.25.02.38.03Z"/>
  <path class="cls-18" d="M514.41,501.41c2.28-2.13,4.35-4.07,6.68-6.25,2.03,2.39,4.08,4.6,5.87,7,1.34,1.8,1.11,3.54-.21,5.02-1.35,1.51-3.28,1.9-5.2.92-.84-.43-1.65-.99-2.32-1.65-1.59-1.56-3.08-3.21-4.83-5.04Z"/>
  <path class="cls-14" d="M541.25,536.32c-1.65-1.79-3.08-3.34-4.77-5.17,3.13-1.27,6-2.43,8.86-3.59.11.15.22.29.34.44-1.43,2.69-2.86,5.37-4.43,8.33Z"/>
  <path class="cls-14" d="M266.9,263.38c0-.12,0-.23-.01-.35.08,0,.15.01.23.02-.09.1-.18.2-.27.3,0,0,.06.03.06.03Z"/>
  <path class="cls-18" d="M415.98,401.37c2.27-2.18,4.28-4.11,6.48-6.22,2.17,2.01,4.55,3.99,6.35,6.53,1.16,1.64.99,3.47-.18,4.88-1.25,1.5-2.83,1.98-4.71,1.28-.81-.3-1.63-.71-2.28-1.27-1.86-1.62-3.64-3.33-5.66-5.2Z"/>
  <path class="cls-16" d="M188,207.09c1.78,1.13,3.35,2.06,4.85,3.1,2.77,1.93,3.81,4.66,3.33,7.93-.6,4.11-2.53,7.52-5.74,10.19-2.9,2.41-6.1,2.99-9.6,1.5-1.68-.71-3.36-1.44-4.78-3.2,3.91-6.39,7.85-12.83,11.95-19.52Z"/>
  <path class="cls-7" d="M208.51,244.31c.17-5.81,4.83-12.52,10.26-14.59,5.82-2.22,11.66,2.7,10.52,9.11-.93,5.24-3.68,9.51-8.32,12.31-4.35,2.62-9.74.93-11.67-3.61-.43-1-.53-2.14-.79-3.22Z"/>
</svg>